%TF.GenerationSoftware,KiCad,Pcbnew,9.0.2*%
%TF.CreationDate,2026-02-08T22:26:42+01:00*%
%TF.ProjectId,home,686f6d65-2e6b-4696-9361-645f70636258,rev?*%
%TF.SameCoordinates,Original*%
%TF.FileFunction,Soldermask,Bot*%
%TF.FilePolarity,Negative*%
%FSLAX46Y46*%
G04 Gerber Fmt 4.6, Leading zero omitted, Abs format (unit mm)*
G04 Created by KiCad (PCBNEW 9.0.2) date 2026-02-08 22:26:42*
%MOMM*%
%LPD*%
G01*
G04 APERTURE LIST*
%ADD10R,1.700000X1.700000*%
%ADD11C,1.700000*%
%ADD12R,1.050000X1.500000*%
%ADD13O,1.050000X1.500000*%
%ADD14R,1.270000X1.270000*%
%ADD15C,1.270000*%
%ADD16R,1.498600X1.498600*%
%ADD17C,1.498600*%
%ADD18C,0.650000*%
%ADD19O,1.254000X2.354000*%
%ADD20O,1.254000X2.054000*%
G04 APERTURE END LIST*
D10*
%TO.C,J3*%
X233000000Y-114380000D03*
D11*
X233000000Y-116920000D03*
X233000000Y-119460000D03*
X233000000Y-122000000D03*
%TD*%
D12*
%TO.C,Q2*%
X212730000Y-139000000D03*
D13*
X214000000Y-139000000D03*
X215270000Y-139000000D03*
%TD*%
D14*
%TO.C,U3*%
X215700000Y-119380000D03*
D15*
X213160000Y-119380000D03*
X210620000Y-119380000D03*
X208080000Y-119380000D03*
X205540000Y-119380000D03*
X203000000Y-119380000D03*
X200460000Y-119380000D03*
X197920000Y-119380000D03*
X197920000Y-127000000D03*
X200460000Y-127000000D03*
X203000000Y-127000000D03*
X205540000Y-127000000D03*
X208080000Y-127000000D03*
X210620000Y-127000000D03*
X213160000Y-127000000D03*
X215700000Y-127000000D03*
%TD*%
D16*
%TO.C,SW4*%
X185499999Y-109500001D03*
D17*
X185499999Y-103000000D03*
X190000000Y-109500001D03*
X190000000Y-103000000D03*
%TD*%
D12*
%TO.C,Q1*%
X207190000Y-139000000D03*
D13*
X208460000Y-139000000D03*
X209730000Y-139000000D03*
%TD*%
D16*
%TO.C,SW1*%
X234500001Y-97749999D03*
D17*
X234500001Y-104250000D03*
X230000000Y-97749999D03*
X230000000Y-104250000D03*
%TD*%
D16*
%TO.C,SW2*%
X185499999Y-120500001D03*
D17*
X185499999Y-114000000D03*
X190000000Y-120500001D03*
X190000000Y-114000000D03*
%TD*%
D10*
%TO.C,J2*%
X201950000Y-130975000D03*
D11*
X204490000Y-130975000D03*
X207030000Y-130975000D03*
X209570000Y-130975000D03*
X212110000Y-130975000D03*
%TD*%
D18*
%TO.C,J1*%
X207110000Y-153320000D03*
X212890000Y-153320000D03*
D19*
X205680000Y-152820000D03*
X214320000Y-152820000D03*
D20*
X205680000Y-157000000D03*
X214320000Y-157000000D03*
%TD*%
M02*
