%TF.GenerationSoftware,KiCad,Pcbnew,9.0.2*%
%TF.CreationDate,2026-02-08T22:26:42+01:00*%
%TF.ProjectId,home,686f6d65-2e6b-4696-9361-645f70636258,rev?*%
%TF.SameCoordinates,Original*%
%TF.FileFunction,Soldermask,Top*%
%TF.FilePolarity,Negative*%
%FSLAX46Y46*%
G04 Gerber Fmt 4.6, Leading zero omitted, Abs format (unit mm)*
G04 Created by KiCad (PCBNEW 9.0.2) date 2026-02-08 22:26:42*
%MOMM*%
%LPD*%
G01*
G04 APERTURE LIST*
G04 Aperture macros list*
%AMRoundRect*
0 Rectangle with rounded corners*
0 $1 Rounding radius*
0 $2 $3 $4 $5 $6 $7 $8 $9 X,Y pos of 4 corners*
0 Add a 4 corners polygon primitive as box body*
4,1,4,$2,$3,$4,$5,$6,$7,$8,$9,$2,$3,0*
0 Add four circle primitives for the rounded corners*
1,1,$1+$1,$2,$3*
1,1,$1+$1,$4,$5*
1,1,$1+$1,$6,$7*
1,1,$1+$1,$8,$9*
0 Add four rect primitives between the rounded corners*
20,1,$1+$1,$2,$3,$4,$5,0*
20,1,$1+$1,$4,$5,$6,$7,0*
20,1,$1+$1,$6,$7,$8,$9,0*
20,1,$1+$1,$8,$9,$2,$3,0*%
G04 Aperture macros list end*
%ADD10R,1.700000X1.700000*%
%ADD11C,1.700000*%
%ADD12RoundRect,0.237500X-0.237500X0.300000X-0.237500X-0.300000X0.237500X-0.300000X0.237500X0.300000X0*%
%ADD13R,1.050000X1.500000*%
%ADD14O,1.050000X1.500000*%
%ADD15RoundRect,0.237500X0.250000X0.237500X-0.250000X0.237500X-0.250000X-0.237500X0.250000X-0.237500X0*%
%ADD16RoundRect,0.237500X-0.237500X0.250000X-0.237500X-0.250000X0.237500X-0.250000X0.237500X0.250000X0*%
%ADD17RoundRect,0.237500X0.237500X-0.300000X0.237500X0.300000X-0.237500X0.300000X-0.237500X-0.300000X0*%
%ADD18R,1.270000X1.270000*%
%ADD19C,1.270000*%
%ADD20R,1.498600X1.498600*%
%ADD21C,1.498600*%
%ADD22RoundRect,0.237500X0.237500X-0.250000X0.237500X0.250000X-0.237500X0.250000X-0.237500X-0.250000X0*%
%ADD23RoundRect,0.237500X0.300000X0.237500X-0.300000X0.237500X-0.300000X-0.237500X0.300000X-0.237500X0*%
%ADD24R,0.609600X0.660400*%
%ADD25RoundRect,0.375000X0.375000X-0.625000X0.375000X0.625000X-0.375000X0.625000X-0.375000X-0.625000X0*%
%ADD26RoundRect,0.500000X1.400000X-0.500000X1.400000X0.500000X-1.400000X0.500000X-1.400000X-0.500000X0*%
%ADD27RoundRect,0.237500X0.237500X-0.287500X0.237500X0.287500X-0.237500X0.287500X-0.237500X-0.287500X0*%
%ADD28R,0.660400X0.609600*%
%ADD29RoundRect,0.237500X-0.300000X-0.237500X0.300000X-0.237500X0.300000X0.237500X-0.300000X0.237500X0*%
%ADD30RoundRect,0.125000X-0.125000X-0.137500X0.125000X-0.137500X0.125000X0.137500X-0.125000X0.137500X0*%
%ADD31C,0.650000*%
%ADD32RoundRect,0.100000X-0.300000X-0.575000X0.300000X-0.575000X0.300000X0.575000X-0.300000X0.575000X0*%
%ADD33RoundRect,0.100000X-0.150000X-0.575000X0.150000X-0.575000X0.150000X0.575000X-0.150000X0.575000X0*%
%ADD34O,1.254000X2.354000*%
%ADD35O,1.254000X2.054000*%
%ADD36RoundRect,0.102000X0.135000X-0.495000X0.135000X0.495000X-0.135000X0.495000X-0.135000X-0.495000X0*%
%ADD37RoundRect,0.102000X0.495000X-0.135000X0.495000X0.135000X-0.495000X0.135000X-0.495000X-0.135000X0*%
%ADD38RoundRect,0.102000X1.625000X-1.625000X1.625000X1.625000X-1.625000X1.625000X-1.625000X-1.625000X0*%
%ADD39R,1.500000X0.900000*%
%ADD40C,0.600000*%
%ADD41R,2.900000X2.900000*%
G04 APERTURE END LIST*
D10*
%TO.C,J3*%
X233000000Y-114380000D03*
D11*
X233000000Y-116920000D03*
X233000000Y-119460000D03*
X233000000Y-122000000D03*
%TD*%
D12*
%TO.C,C5*%
X193000000Y-107275000D03*
X193000000Y-109000000D03*
%TD*%
D13*
%TO.C,Q2*%
X212730000Y-139000000D03*
D14*
X214000000Y-139000000D03*
X215270000Y-139000000D03*
%TD*%
D15*
%TO.C,R6*%
X217000000Y-146000000D03*
X215175000Y-146000000D03*
%TD*%
D12*
%TO.C,C4*%
X196000000Y-103137500D03*
X196000000Y-104862500D03*
%TD*%
D16*
%TO.C,R9*%
X226000000Y-128212500D03*
X226000000Y-130037500D03*
%TD*%
D17*
%TO.C,C14*%
X229000000Y-138500000D03*
X229000000Y-136775000D03*
%TD*%
D18*
%TO.C,U3*%
X215700000Y-119380000D03*
D19*
X213160000Y-119380000D03*
X210620000Y-119380000D03*
X208080000Y-119380000D03*
X205540000Y-119380000D03*
X203000000Y-119380000D03*
X200460000Y-119380000D03*
X197920000Y-119380000D03*
X197920000Y-127000000D03*
X200460000Y-127000000D03*
X203000000Y-127000000D03*
X205540000Y-127000000D03*
X208080000Y-127000000D03*
X210620000Y-127000000D03*
X213160000Y-127000000D03*
X215700000Y-127000000D03*
%TD*%
D20*
%TO.C,SW4*%
X185499999Y-109500001D03*
D21*
X185499999Y-103000000D03*
X190000000Y-109500001D03*
X190000000Y-103000000D03*
%TD*%
D22*
%TO.C,R15*%
X184000000Y-148912500D03*
X184000000Y-147087500D03*
%TD*%
D23*
%TO.C,C8*%
X198000000Y-130000000D03*
X196275000Y-130000000D03*
%TD*%
%TO.C,C10*%
X187725000Y-129000000D03*
X186000000Y-129000000D03*
%TD*%
D16*
%TO.C,R3*%
X196000000Y-107175000D03*
X196000000Y-109000000D03*
%TD*%
D12*
%TO.C,C3*%
X193000000Y-103137500D03*
X193000000Y-104862500D03*
%TD*%
D22*
%TO.C,R13*%
X192000000Y-128912500D03*
X192000000Y-127087500D03*
%TD*%
D23*
%TO.C,C7*%
X198862500Y-135000000D03*
X197137500Y-135000000D03*
%TD*%
D24*
%TO.C,CR3*%
X210857000Y-146000000D03*
X212000000Y-146000000D03*
%TD*%
D12*
%TO.C,C16*%
X196159750Y-153275000D03*
X196159750Y-155000000D03*
%TD*%
D13*
%TO.C,Q1*%
X207190000Y-139000000D03*
D14*
X208460000Y-139000000D03*
X209730000Y-139000000D03*
%TD*%
D25*
%TO.C,U5*%
X190700000Y-148997250D03*
X193000000Y-148997250D03*
D26*
X193000000Y-142697250D03*
D25*
X195300000Y-148997250D03*
%TD*%
D27*
%TO.C,D3*%
X223975000Y-115875000D03*
X223975000Y-114125000D03*
%TD*%
D16*
%TO.C,R11*%
X202000000Y-138175000D03*
X202000000Y-140000000D03*
%TD*%
%TO.C,R14*%
X194000000Y-132000000D03*
X194000000Y-133825000D03*
%TD*%
D20*
%TO.C,SW1*%
X234500001Y-97749999D03*
D21*
X234500001Y-104250000D03*
X230000000Y-97749999D03*
X230000000Y-104250000D03*
%TD*%
D16*
%TO.C,R7*%
X229000000Y-133000000D03*
X229000000Y-134825000D03*
%TD*%
D17*
%TO.C,C1*%
X233000000Y-136725000D03*
X233000000Y-135000000D03*
%TD*%
D12*
%TO.C,C17*%
X187000000Y-142275000D03*
X187000000Y-144000000D03*
%TD*%
%TO.C,C2*%
X200000000Y-153275000D03*
X200000000Y-155000000D03*
%TD*%
D16*
%TO.C,R10*%
X224000000Y-119087500D03*
X224000000Y-120912500D03*
%TD*%
D22*
%TO.C,R5*%
X230000000Y-142825000D03*
X230000000Y-141000000D03*
%TD*%
D20*
%TO.C,SW2*%
X185499999Y-120500001D03*
D21*
X185499999Y-114000000D03*
X190000000Y-120500001D03*
X190000000Y-114000000D03*
%TD*%
D23*
%TO.C,C12*%
X232725000Y-94250000D03*
X231000000Y-94250000D03*
%TD*%
D10*
%TO.C,J2*%
X201950000Y-130975000D03*
D11*
X204490000Y-130975000D03*
X207030000Y-130975000D03*
X209570000Y-130975000D03*
X212110000Y-130975000D03*
%TD*%
D27*
%TO.C,D4*%
X193000000Y-155000000D03*
X193000000Y-153250000D03*
%TD*%
D15*
%TO.C,R4*%
X228000000Y-141000000D03*
X226175000Y-141000000D03*
%TD*%
D12*
%TO.C,C6*%
X232000000Y-141000000D03*
X232000000Y-142725000D03*
%TD*%
D28*
%TO.C,CR1*%
X198000000Y-153857000D03*
X198000000Y-155000000D03*
%TD*%
D22*
%TO.C,R16*%
X190140250Y-155002750D03*
X190140250Y-153177750D03*
%TD*%
D29*
%TO.C,C15*%
X186637500Y-100000000D03*
X188362500Y-100000000D03*
%TD*%
D23*
%TO.C,C9*%
X187000000Y-133000000D03*
X185275000Y-133000000D03*
%TD*%
%TO.C,C18*%
X233862500Y-127137500D03*
X232137500Y-127137500D03*
%TD*%
D30*
%TO.C,U4*%
X189000000Y-131625000D03*
X189800000Y-131625000D03*
X190600000Y-131625000D03*
X191400000Y-131625000D03*
X191400000Y-134000000D03*
X190600000Y-134000000D03*
X189800000Y-134000000D03*
X189000000Y-134000000D03*
%TD*%
D29*
%TO.C,C13*%
X186739400Y-124400001D03*
X188464400Y-124400001D03*
%TD*%
D31*
%TO.C,J1*%
X207110000Y-153320000D03*
X212890000Y-153320000D03*
D32*
X206800000Y-152255000D03*
X207600000Y-152255000D03*
D33*
X208750000Y-152255000D03*
X209750000Y-152255000D03*
X210250000Y-152255000D03*
X211250000Y-152255000D03*
D32*
X213200000Y-152255000D03*
X212400000Y-152255000D03*
D33*
X211750000Y-152255000D03*
X210750000Y-152255000D03*
X209250000Y-152255000D03*
X208250000Y-152255000D03*
D34*
X205680000Y-152820000D03*
X214320000Y-152820000D03*
D35*
X205680000Y-157000000D03*
X214320000Y-157000000D03*
%TD*%
D36*
%TO.C,U2*%
X222500000Y-139360000D03*
X223000000Y-139360000D03*
X223500000Y-139360000D03*
X224000000Y-139360000D03*
X224500000Y-139360000D03*
X225000000Y-139360000D03*
X225500000Y-139360000D03*
D37*
X226360000Y-138500000D03*
X226360000Y-138000000D03*
X226360000Y-137500000D03*
X226360000Y-137000000D03*
X226360000Y-136500000D03*
X226360000Y-136000000D03*
X226360000Y-135500000D03*
D36*
X225500000Y-134640000D03*
X225000000Y-134640000D03*
X224500000Y-134640000D03*
X224000000Y-134640000D03*
X223500000Y-134640000D03*
X223000000Y-134640000D03*
X222500000Y-134640000D03*
D37*
X221640000Y-135500000D03*
X221640000Y-136000000D03*
X221640000Y-136500000D03*
X221640000Y-137000000D03*
X221640000Y-137500000D03*
X221640000Y-138000000D03*
X221640000Y-138500000D03*
D38*
X224000000Y-137000000D03*
%TD*%
D16*
%TO.C,R8*%
X228000000Y-119087500D03*
X228000000Y-120912500D03*
%TD*%
D24*
%TO.C,CR2*%
X209000000Y-146000000D03*
X207857000Y-146000000D03*
%TD*%
D15*
%TO.C,R2*%
X205000000Y-146000000D03*
X203175000Y-146000000D03*
%TD*%
D39*
%TO.C,U1*%
X201250000Y-102000000D03*
X201250000Y-103500000D03*
X201250000Y-105000000D03*
X201250000Y-106500000D03*
X201250000Y-108000000D03*
X201250000Y-109500000D03*
X201250000Y-111000000D03*
X201250000Y-112500000D03*
X201250000Y-114000000D03*
X218750000Y-114000000D03*
X218750000Y-112500000D03*
X218750000Y-111000000D03*
X218750000Y-109500000D03*
X218750000Y-108000000D03*
X218750000Y-106500000D03*
X218750000Y-105000000D03*
X218750000Y-103500000D03*
X218750000Y-102000000D03*
D40*
X209860000Y-107650000D03*
X209860000Y-108750000D03*
X210410000Y-107100000D03*
X210410000Y-108200000D03*
X210410000Y-109300000D03*
X210960000Y-107650000D03*
D41*
X210960000Y-108200000D03*
D40*
X210960000Y-108750000D03*
X211510000Y-107100000D03*
X211510000Y-108200000D03*
X211510000Y-109300000D03*
X212060000Y-107650000D03*
X212060000Y-108750000D03*
%TD*%
D16*
%TO.C,R12*%
X204000000Y-138175000D03*
X204000000Y-140000000D03*
%TD*%
D27*
%TO.C,D5*%
X184000000Y-144000000D03*
X184000000Y-142250000D03*
%TD*%
%TO.C,D1*%
X228000000Y-115875000D03*
X228000000Y-114125000D03*
%TD*%
D23*
%TO.C,C11*%
X190000000Y-137000000D03*
X188275000Y-137000000D03*
%TD*%
D27*
%TO.C,D2*%
X226000000Y-125000000D03*
X226000000Y-123250000D03*
%TD*%
M02*
