M48
; DRILL file {KiCad 9.0.2} date 2026-02-08T22:26:39+0100
; FORMAT={-:-/ absolute / metric / decimal}
; #@! TF.CreationDate,2026-02-08T22:26:39+01:00
; #@! TF.GenerationSoftware,Kicad,Pcbnew,9.0.2
; #@! TF.FileFunction,MixedPlating,1,2
FMAT,2
METRIC
; #@! TA.AperFunction,Plated,PTH,ComponentDrill
T1C0.200
; #@! TA.AperFunction,Plated,PTH,ViaDrill
T2C0.300
; #@! TA.AperFunction,Plated,PTH,ComponentDrill
T3C0.650
; #@! TA.AperFunction,Plated,PTH,ComponentDrill
T4C0.750
; #@! TA.AperFunction,Plated,PTH,ComponentDrill
T5C0.762
; #@! TA.AperFunction,Plated,PTH,ComponentDrill
T6C0.991
; #@! TA.AperFunction,Plated,PTH,ComponentDrill
T7C1.000
; #@! TA.AperFunction,NonPlated,NPTH,ComponentDrill
T8C0.650
%
G90
G05
T1
X209.86Y-107.65
X209.86Y-108.75
X210.41Y-107.1
X210.41Y-108.2
X210.41Y-109.3
X210.96Y-107.65
X210.96Y-108.75
X211.51Y-107.1
X211.51Y-108.2
X211.51Y-109.3
X212.06Y-107.65
X212.06Y-108.75
T2
X182.5Y-149.0
X184.0Y-133.0
X184.0Y-150.5
X184.5Y-129.0
X185.0Y-100.0
X185.0Y-131.5
X185.0Y-134.5
X185.5Y-123.5
X185.5Y-144.0
X185.5Y-149.0
X186.0Y-130.5
X186.5Y-137.0
X187.0Y-145.5
X188.0Y-131.5
X188.0Y-135.5
X188.8Y-149.1
X189.0Y-152.0
X189.8Y-133.2
X190.7Y-147.4
X190.7Y-150.6
X191.0Y-152.0
X191.5Y-133.0
X192.0Y-110.5
X192.5Y-106.0
X193.0Y-117.0
X193.5Y-110.0
X194.5Y-106.0
X195.0Y-156.5
X196.0Y-115.0
X196.0Y-128.5
X196.0Y-131.5
X196.0Y-135.0
X197.0Y-156.5
X197.5Y-117.0
X198.0Y-156.0
X199.0Y-156.5
X199.5Y-114.0
X201.0Y-156.5
X201.25Y-115.75
X202.0Y-146.0
X202.5Y-135.5
X203.0Y-114.0
X206.0Y-151.0
X206.8Y-146.0
X208.5Y-135.5
X213.0Y-135.0
X213.0Y-146.0
X214.0Y-151.0
X218.0Y-135.0
X218.5Y-138.0
X218.5Y-146.0
X220.0Y-135.0
X220.0Y-138.0
X221.0Y-142.0
X222.0Y-141.0
X223.0Y-136.0
X223.0Y-138.0
X223.5Y-142.0
X224.0Y-122.5
X224.0Y-137.0
X225.0Y-136.0
X225.0Y-138.0
X226.0Y-131.5
X227.8Y-138.501
X228.0Y-122.5
X228.5Y-143.0
X229.0Y-131.5
X229.0Y-140.0
X230.0Y-144.5
X230.8Y-127.2
X231.5Y-135.0
X232.0Y-144.5
X232.1Y-128.7
X233.0Y-133.5
X233.5Y-143.0
X234.0Y-94.5
T4
X207.19Y-139.0
X208.46Y-139.0
X209.73Y-139.0
X212.73Y-139.0
X214.0Y-139.0
X215.27Y-139.0
T5
X197.92Y-119.38
X197.92Y-127.0
X200.46Y-119.38
X200.46Y-127.0
X203.0Y-119.38
X203.0Y-127.0
X205.54Y-119.38
X205.54Y-127.0
X208.08Y-119.38
X208.08Y-127.0
X210.62Y-119.38
X210.62Y-127.0
X213.16Y-119.38
X213.16Y-127.0
X215.7Y-119.38
X215.7Y-127.0
T6
X185.5Y-103.0
X185.5Y-109.5
X185.5Y-114.0
X185.5Y-120.5
X190.0Y-103.0
X190.0Y-109.5
X190.0Y-114.0
X190.0Y-120.5
X230.0Y-97.75
X230.0Y-104.25
X234.5Y-97.75
X234.5Y-104.25
T7
X201.95Y-130.975
X204.49Y-130.975
X207.03Y-130.975
X209.57Y-130.975
X212.11Y-130.975
X233.0Y-114.38
X233.0Y-116.92
X233.0Y-119.46
X233.0Y-122.0
T8
X207.11Y-153.32
X212.89Y-153.32
T3
G00X205.68Y-152.27
M15
G01X205.68Y-153.37
M16
G05
G00X205.68Y-156.6
M15
G01X205.68Y-157.4
M16
G05
G00X214.32Y-152.27
M15
G01X214.32Y-153.37
M16
G05
G00X214.32Y-156.6
M15
G01X214.32Y-157.4
M16
G05
M30
