%TF.GenerationSoftware,KiCad,Pcbnew,9.0.2*%
%TF.CreationDate,2026-02-08T22:26:42+01:00*%
%TF.ProjectId,home,686f6d65-2e6b-4696-9361-645f70636258,rev?*%
%TF.SameCoordinates,Original*%
%TF.FileFunction,Legend,Top*%
%TF.FilePolarity,Positive*%
%FSLAX46Y46*%
G04 Gerber Fmt 4.6, Leading zero omitted, Abs format (unit mm)*
G04 Created by KiCad (PCBNEW 9.0.2) date 2026-02-08 22:26:42*
%MOMM*%
%LPD*%
G01*
G04 APERTURE LIST*
%ADD10C,0.100000*%
%ADD11C,0.150000*%
%ADD12C,0.120000*%
%ADD13C,0.152400*%
%ADD14C,0.127000*%
%ADD15C,0.200000*%
G04 APERTURE END LIST*
D10*
X223303884Y-153262475D02*
X223303884Y-152262475D01*
X223303884Y-152738665D02*
X223875312Y-152738665D01*
X223875312Y-153262475D02*
X223875312Y-152262475D01*
X224541979Y-152262475D02*
X224732455Y-152262475D01*
X224732455Y-152262475D02*
X224827693Y-152310094D01*
X224827693Y-152310094D02*
X224922931Y-152405332D01*
X224922931Y-152405332D02*
X224970550Y-152595808D01*
X224970550Y-152595808D02*
X224970550Y-152929141D01*
X224970550Y-152929141D02*
X224922931Y-153119617D01*
X224922931Y-153119617D02*
X224827693Y-153214856D01*
X224827693Y-153214856D02*
X224732455Y-153262475D01*
X224732455Y-153262475D02*
X224541979Y-153262475D01*
X224541979Y-153262475D02*
X224446741Y-153214856D01*
X224446741Y-153214856D02*
X224351503Y-153119617D01*
X224351503Y-153119617D02*
X224303884Y-152929141D01*
X224303884Y-152929141D02*
X224303884Y-152595808D01*
X224303884Y-152595808D02*
X224351503Y-152405332D01*
X224351503Y-152405332D02*
X224446741Y-152310094D01*
X224446741Y-152310094D02*
X224541979Y-152262475D01*
X225399122Y-153262475D02*
X225399122Y-152262475D01*
X225399122Y-152262475D02*
X225732455Y-152976760D01*
X225732455Y-152976760D02*
X226065788Y-152262475D01*
X226065788Y-152262475D02*
X226065788Y-153262475D01*
X226541979Y-152738665D02*
X226875312Y-152738665D01*
X227018169Y-153262475D02*
X226541979Y-153262475D01*
X226541979Y-153262475D02*
X226541979Y-152262475D01*
X226541979Y-152262475D02*
X227018169Y-152262475D01*
X228161027Y-153214856D02*
X228303884Y-153262475D01*
X228303884Y-153262475D02*
X228541979Y-153262475D01*
X228541979Y-153262475D02*
X228637217Y-153214856D01*
X228637217Y-153214856D02*
X228684836Y-153167236D01*
X228684836Y-153167236D02*
X228732455Y-153071998D01*
X228732455Y-153071998D02*
X228732455Y-152976760D01*
X228732455Y-152976760D02*
X228684836Y-152881522D01*
X228684836Y-152881522D02*
X228637217Y-152833903D01*
X228637217Y-152833903D02*
X228541979Y-152786284D01*
X228541979Y-152786284D02*
X228351503Y-152738665D01*
X228351503Y-152738665D02*
X228256265Y-152691046D01*
X228256265Y-152691046D02*
X228208646Y-152643427D01*
X228208646Y-152643427D02*
X228161027Y-152548189D01*
X228161027Y-152548189D02*
X228161027Y-152452951D01*
X228161027Y-152452951D02*
X228208646Y-152357713D01*
X228208646Y-152357713D02*
X228256265Y-152310094D01*
X228256265Y-152310094D02*
X228351503Y-152262475D01*
X228351503Y-152262475D02*
X228589598Y-152262475D01*
X228589598Y-152262475D02*
X228732455Y-152310094D01*
X229161027Y-152738665D02*
X229494360Y-152738665D01*
X229637217Y-153262475D02*
X229161027Y-153262475D01*
X229161027Y-153262475D02*
X229161027Y-152262475D01*
X229161027Y-152262475D02*
X229637217Y-152262475D01*
X230065789Y-153262475D02*
X230065789Y-152262475D01*
X230065789Y-152262475D02*
X230637217Y-153262475D01*
X230637217Y-153262475D02*
X230637217Y-152262475D01*
X231065789Y-153214856D02*
X231208646Y-153262475D01*
X231208646Y-153262475D02*
X231446741Y-153262475D01*
X231446741Y-153262475D02*
X231541979Y-153214856D01*
X231541979Y-153214856D02*
X231589598Y-153167236D01*
X231589598Y-153167236D02*
X231637217Y-153071998D01*
X231637217Y-153071998D02*
X231637217Y-152976760D01*
X231637217Y-152976760D02*
X231589598Y-152881522D01*
X231589598Y-152881522D02*
X231541979Y-152833903D01*
X231541979Y-152833903D02*
X231446741Y-152786284D01*
X231446741Y-152786284D02*
X231256265Y-152738665D01*
X231256265Y-152738665D02*
X231161027Y-152691046D01*
X231161027Y-152691046D02*
X231113408Y-152643427D01*
X231113408Y-152643427D02*
X231065789Y-152548189D01*
X231065789Y-152548189D02*
X231065789Y-152452951D01*
X231065789Y-152452951D02*
X231113408Y-152357713D01*
X231113408Y-152357713D02*
X231161027Y-152310094D01*
X231161027Y-152310094D02*
X231256265Y-152262475D01*
X231256265Y-152262475D02*
X231494360Y-152262475D01*
X231494360Y-152262475D02*
X231637217Y-152310094D01*
X232256265Y-152262475D02*
X232446741Y-152262475D01*
X232446741Y-152262475D02*
X232541979Y-152310094D01*
X232541979Y-152310094D02*
X232637217Y-152405332D01*
X232637217Y-152405332D02*
X232684836Y-152595808D01*
X232684836Y-152595808D02*
X232684836Y-152929141D01*
X232684836Y-152929141D02*
X232637217Y-153119617D01*
X232637217Y-153119617D02*
X232541979Y-153214856D01*
X232541979Y-153214856D02*
X232446741Y-153262475D01*
X232446741Y-153262475D02*
X232256265Y-153262475D01*
X232256265Y-153262475D02*
X232161027Y-153214856D01*
X232161027Y-153214856D02*
X232065789Y-153119617D01*
X232065789Y-153119617D02*
X232018170Y-152929141D01*
X232018170Y-152929141D02*
X232018170Y-152595808D01*
X232018170Y-152595808D02*
X232065789Y-152405332D01*
X232065789Y-152405332D02*
X232161027Y-152310094D01*
X232161027Y-152310094D02*
X232256265Y-152262475D01*
X233684836Y-153262475D02*
X233351503Y-152786284D01*
X233113408Y-153262475D02*
X233113408Y-152262475D01*
X233113408Y-152262475D02*
X233494360Y-152262475D01*
X233494360Y-152262475D02*
X233589598Y-152310094D01*
X233589598Y-152310094D02*
X233637217Y-152357713D01*
X233637217Y-152357713D02*
X233684836Y-152452951D01*
X233684836Y-152452951D02*
X233684836Y-152595808D01*
X233684836Y-152595808D02*
X233637217Y-152691046D01*
X233637217Y-152691046D02*
X233589598Y-152738665D01*
X233589598Y-152738665D02*
X233494360Y-152786284D01*
X233494360Y-152786284D02*
X233113408Y-152786284D01*
X223161027Y-153872419D02*
X223732455Y-153872419D01*
X223446741Y-154872419D02*
X223446741Y-153872419D01*
X224065789Y-154872419D02*
X224065789Y-153872419D01*
X224065789Y-154348609D02*
X224637217Y-154348609D01*
X224637217Y-154872419D02*
X224637217Y-153872419D01*
X225113408Y-154348609D02*
X225446741Y-154348609D01*
X225589598Y-154872419D02*
X225113408Y-154872419D01*
X225113408Y-154872419D02*
X225113408Y-153872419D01*
X225113408Y-153872419D02*
X225589598Y-153872419D01*
X226732456Y-154586704D02*
X227208646Y-154586704D01*
X226637218Y-154872419D02*
X226970551Y-153872419D01*
X226970551Y-153872419D02*
X227303884Y-154872419D01*
X227637218Y-154872419D02*
X227637218Y-153872419D01*
X227637218Y-153872419D02*
X228208646Y-154872419D01*
X228208646Y-154872419D02*
X228208646Y-153872419D01*
X228684837Y-154872419D02*
X228684837Y-153872419D01*
X228684837Y-154348609D02*
X229256265Y-154348609D01*
X229256265Y-154872419D02*
X229256265Y-153872419D01*
D11*
X232666666Y-110834819D02*
X232666666Y-111549104D01*
X232666666Y-111549104D02*
X232619047Y-111691961D01*
X232619047Y-111691961D02*
X232523809Y-111787200D01*
X232523809Y-111787200D02*
X232380952Y-111834819D01*
X232380952Y-111834819D02*
X232285714Y-111834819D01*
X233047619Y-110834819D02*
X233666666Y-110834819D01*
X233666666Y-110834819D02*
X233333333Y-111215771D01*
X233333333Y-111215771D02*
X233476190Y-111215771D01*
X233476190Y-111215771D02*
X233571428Y-111263390D01*
X233571428Y-111263390D02*
X233619047Y-111311009D01*
X233619047Y-111311009D02*
X233666666Y-111406247D01*
X233666666Y-111406247D02*
X233666666Y-111644342D01*
X233666666Y-111644342D02*
X233619047Y-111739580D01*
X233619047Y-111739580D02*
X233571428Y-111787200D01*
X233571428Y-111787200D02*
X233476190Y-111834819D01*
X233476190Y-111834819D02*
X233190476Y-111834819D01*
X233190476Y-111834819D02*
X233095238Y-111787200D01*
X233095238Y-111787200D02*
X233047619Y-111739580D01*
X194859580Y-108666666D02*
X194907200Y-108714285D01*
X194907200Y-108714285D02*
X194954819Y-108857142D01*
X194954819Y-108857142D02*
X194954819Y-108952380D01*
X194954819Y-108952380D02*
X194907200Y-109095237D01*
X194907200Y-109095237D02*
X194811961Y-109190475D01*
X194811961Y-109190475D02*
X194716723Y-109238094D01*
X194716723Y-109238094D02*
X194526247Y-109285713D01*
X194526247Y-109285713D02*
X194383390Y-109285713D01*
X194383390Y-109285713D02*
X194192914Y-109238094D01*
X194192914Y-109238094D02*
X194097676Y-109190475D01*
X194097676Y-109190475D02*
X194002438Y-109095237D01*
X194002438Y-109095237D02*
X193954819Y-108952380D01*
X193954819Y-108952380D02*
X193954819Y-108857142D01*
X193954819Y-108857142D02*
X194002438Y-108714285D01*
X194002438Y-108714285D02*
X194050057Y-108666666D01*
X193954819Y-107761904D02*
X193954819Y-108238094D01*
X193954819Y-108238094D02*
X194431009Y-108285713D01*
X194431009Y-108285713D02*
X194383390Y-108238094D01*
X194383390Y-108238094D02*
X194335771Y-108142856D01*
X194335771Y-108142856D02*
X194335771Y-107904761D01*
X194335771Y-107904761D02*
X194383390Y-107809523D01*
X194383390Y-107809523D02*
X194431009Y-107761904D01*
X194431009Y-107761904D02*
X194526247Y-107714285D01*
X194526247Y-107714285D02*
X194764342Y-107714285D01*
X194764342Y-107714285D02*
X194859580Y-107761904D01*
X194859580Y-107761904D02*
X194907200Y-107809523D01*
X194907200Y-107809523D02*
X194954819Y-107904761D01*
X194954819Y-107904761D02*
X194954819Y-108142856D01*
X194954819Y-108142856D02*
X194907200Y-108238094D01*
X194907200Y-108238094D02*
X194859580Y-108285713D01*
X211904761Y-135550057D02*
X211809523Y-135502438D01*
X211809523Y-135502438D02*
X211714285Y-135407200D01*
X211714285Y-135407200D02*
X211571428Y-135264342D01*
X211571428Y-135264342D02*
X211476190Y-135216723D01*
X211476190Y-135216723D02*
X211380952Y-135216723D01*
X211428571Y-135454819D02*
X211333333Y-135407200D01*
X211333333Y-135407200D02*
X211238095Y-135311961D01*
X211238095Y-135311961D02*
X211190476Y-135121485D01*
X211190476Y-135121485D02*
X211190476Y-134788152D01*
X211190476Y-134788152D02*
X211238095Y-134597676D01*
X211238095Y-134597676D02*
X211333333Y-134502438D01*
X211333333Y-134502438D02*
X211428571Y-134454819D01*
X211428571Y-134454819D02*
X211619047Y-134454819D01*
X211619047Y-134454819D02*
X211714285Y-134502438D01*
X211714285Y-134502438D02*
X211809523Y-134597676D01*
X211809523Y-134597676D02*
X211857142Y-134788152D01*
X211857142Y-134788152D02*
X211857142Y-135121485D01*
X211857142Y-135121485D02*
X211809523Y-135311961D01*
X211809523Y-135311961D02*
X211714285Y-135407200D01*
X211714285Y-135407200D02*
X211619047Y-135454819D01*
X211619047Y-135454819D02*
X211428571Y-135454819D01*
X212238095Y-134550057D02*
X212285714Y-134502438D01*
X212285714Y-134502438D02*
X212380952Y-134454819D01*
X212380952Y-134454819D02*
X212619047Y-134454819D01*
X212619047Y-134454819D02*
X212714285Y-134502438D01*
X212714285Y-134502438D02*
X212761904Y-134550057D01*
X212761904Y-134550057D02*
X212809523Y-134645295D01*
X212809523Y-134645295D02*
X212809523Y-134740533D01*
X212809523Y-134740533D02*
X212761904Y-134883390D01*
X212761904Y-134883390D02*
X212190476Y-135454819D01*
X212190476Y-135454819D02*
X212809523Y-135454819D01*
X215920833Y-147884819D02*
X215587500Y-147408628D01*
X215349405Y-147884819D02*
X215349405Y-146884819D01*
X215349405Y-146884819D02*
X215730357Y-146884819D01*
X215730357Y-146884819D02*
X215825595Y-146932438D01*
X215825595Y-146932438D02*
X215873214Y-146980057D01*
X215873214Y-146980057D02*
X215920833Y-147075295D01*
X215920833Y-147075295D02*
X215920833Y-147218152D01*
X215920833Y-147218152D02*
X215873214Y-147313390D01*
X215873214Y-147313390D02*
X215825595Y-147361009D01*
X215825595Y-147361009D02*
X215730357Y-147408628D01*
X215730357Y-147408628D02*
X215349405Y-147408628D01*
X216777976Y-146884819D02*
X216587500Y-146884819D01*
X216587500Y-146884819D02*
X216492262Y-146932438D01*
X216492262Y-146932438D02*
X216444643Y-146980057D01*
X216444643Y-146980057D02*
X216349405Y-147122914D01*
X216349405Y-147122914D02*
X216301786Y-147313390D01*
X216301786Y-147313390D02*
X216301786Y-147694342D01*
X216301786Y-147694342D02*
X216349405Y-147789580D01*
X216349405Y-147789580D02*
X216397024Y-147837200D01*
X216397024Y-147837200D02*
X216492262Y-147884819D01*
X216492262Y-147884819D02*
X216682738Y-147884819D01*
X216682738Y-147884819D02*
X216777976Y-147837200D01*
X216777976Y-147837200D02*
X216825595Y-147789580D01*
X216825595Y-147789580D02*
X216873214Y-147694342D01*
X216873214Y-147694342D02*
X216873214Y-147456247D01*
X216873214Y-147456247D02*
X216825595Y-147361009D01*
X216825595Y-147361009D02*
X216777976Y-147313390D01*
X216777976Y-147313390D02*
X216682738Y-147265771D01*
X216682738Y-147265771D02*
X216492262Y-147265771D01*
X216492262Y-147265771D02*
X216397024Y-147313390D01*
X216397024Y-147313390D02*
X216349405Y-147361009D01*
X216349405Y-147361009D02*
X216301786Y-147456247D01*
X197859580Y-104166666D02*
X197907200Y-104214285D01*
X197907200Y-104214285D02*
X197954819Y-104357142D01*
X197954819Y-104357142D02*
X197954819Y-104452380D01*
X197954819Y-104452380D02*
X197907200Y-104595237D01*
X197907200Y-104595237D02*
X197811961Y-104690475D01*
X197811961Y-104690475D02*
X197716723Y-104738094D01*
X197716723Y-104738094D02*
X197526247Y-104785713D01*
X197526247Y-104785713D02*
X197383390Y-104785713D01*
X197383390Y-104785713D02*
X197192914Y-104738094D01*
X197192914Y-104738094D02*
X197097676Y-104690475D01*
X197097676Y-104690475D02*
X197002438Y-104595237D01*
X197002438Y-104595237D02*
X196954819Y-104452380D01*
X196954819Y-104452380D02*
X196954819Y-104357142D01*
X196954819Y-104357142D02*
X197002438Y-104214285D01*
X197002438Y-104214285D02*
X197050057Y-104166666D01*
X197288152Y-103309523D02*
X197954819Y-103309523D01*
X196907200Y-103547618D02*
X197621485Y-103785713D01*
X197621485Y-103785713D02*
X197621485Y-103166666D01*
X224954819Y-129291666D02*
X224478628Y-129624999D01*
X224954819Y-129863094D02*
X223954819Y-129863094D01*
X223954819Y-129863094D02*
X223954819Y-129482142D01*
X223954819Y-129482142D02*
X224002438Y-129386904D01*
X224002438Y-129386904D02*
X224050057Y-129339285D01*
X224050057Y-129339285D02*
X224145295Y-129291666D01*
X224145295Y-129291666D02*
X224288152Y-129291666D01*
X224288152Y-129291666D02*
X224383390Y-129339285D01*
X224383390Y-129339285D02*
X224431009Y-129386904D01*
X224431009Y-129386904D02*
X224478628Y-129482142D01*
X224478628Y-129482142D02*
X224478628Y-129863094D01*
X224954819Y-128815475D02*
X224954819Y-128624999D01*
X224954819Y-128624999D02*
X224907200Y-128529761D01*
X224907200Y-128529761D02*
X224859580Y-128482142D01*
X224859580Y-128482142D02*
X224716723Y-128386904D01*
X224716723Y-128386904D02*
X224526247Y-128339285D01*
X224526247Y-128339285D02*
X224145295Y-128339285D01*
X224145295Y-128339285D02*
X224050057Y-128386904D01*
X224050057Y-128386904D02*
X224002438Y-128434523D01*
X224002438Y-128434523D02*
X223954819Y-128529761D01*
X223954819Y-128529761D02*
X223954819Y-128720237D01*
X223954819Y-128720237D02*
X224002438Y-128815475D01*
X224002438Y-128815475D02*
X224050057Y-128863094D01*
X224050057Y-128863094D02*
X224145295Y-128910713D01*
X224145295Y-128910713D02*
X224383390Y-128910713D01*
X224383390Y-128910713D02*
X224478628Y-128863094D01*
X224478628Y-128863094D02*
X224526247Y-128815475D01*
X224526247Y-128815475D02*
X224573866Y-128720237D01*
X224573866Y-128720237D02*
X224573866Y-128529761D01*
X224573866Y-128529761D02*
X224526247Y-128434523D01*
X224526247Y-128434523D02*
X224478628Y-128386904D01*
X224478628Y-128386904D02*
X224383390Y-128339285D01*
X230859580Y-137142857D02*
X230907200Y-137190476D01*
X230907200Y-137190476D02*
X230954819Y-137333333D01*
X230954819Y-137333333D02*
X230954819Y-137428571D01*
X230954819Y-137428571D02*
X230907200Y-137571428D01*
X230907200Y-137571428D02*
X230811961Y-137666666D01*
X230811961Y-137666666D02*
X230716723Y-137714285D01*
X230716723Y-137714285D02*
X230526247Y-137761904D01*
X230526247Y-137761904D02*
X230383390Y-137761904D01*
X230383390Y-137761904D02*
X230192914Y-137714285D01*
X230192914Y-137714285D02*
X230097676Y-137666666D01*
X230097676Y-137666666D02*
X230002438Y-137571428D01*
X230002438Y-137571428D02*
X229954819Y-137428571D01*
X229954819Y-137428571D02*
X229954819Y-137333333D01*
X229954819Y-137333333D02*
X230002438Y-137190476D01*
X230002438Y-137190476D02*
X230050057Y-137142857D01*
X230954819Y-136190476D02*
X230954819Y-136761904D01*
X230954819Y-136476190D02*
X229954819Y-136476190D01*
X229954819Y-136476190D02*
X230097676Y-136571428D01*
X230097676Y-136571428D02*
X230192914Y-136666666D01*
X230192914Y-136666666D02*
X230240533Y-136761904D01*
X230288152Y-135333333D02*
X230954819Y-135333333D01*
X229907200Y-135571428D02*
X230621485Y-135809523D01*
X230621485Y-135809523D02*
X230621485Y-135190476D01*
X207355180Y-122428095D02*
X206545657Y-122428095D01*
X206545657Y-122428095D02*
X206450419Y-122475714D01*
X206450419Y-122475714D02*
X206402800Y-122523333D01*
X206402800Y-122523333D02*
X206355180Y-122618571D01*
X206355180Y-122618571D02*
X206355180Y-122809047D01*
X206355180Y-122809047D02*
X206402800Y-122904285D01*
X206402800Y-122904285D02*
X206450419Y-122951904D01*
X206450419Y-122951904D02*
X206545657Y-122999523D01*
X206545657Y-122999523D02*
X207355180Y-122999523D01*
X207355180Y-123380476D02*
X207355180Y-123999523D01*
X207355180Y-123999523D02*
X206974228Y-123666190D01*
X206974228Y-123666190D02*
X206974228Y-123809047D01*
X206974228Y-123809047D02*
X206926609Y-123904285D01*
X206926609Y-123904285D02*
X206878990Y-123951904D01*
X206878990Y-123951904D02*
X206783752Y-123999523D01*
X206783752Y-123999523D02*
X206545657Y-123999523D01*
X206545657Y-123999523D02*
X206450419Y-123951904D01*
X206450419Y-123951904D02*
X206402800Y-123904285D01*
X206402800Y-123904285D02*
X206355180Y-123809047D01*
X206355180Y-123809047D02*
X206355180Y-123523333D01*
X206355180Y-123523333D02*
X206402800Y-123428095D01*
X206402800Y-123428095D02*
X206450419Y-123380476D01*
X217454819Y-118499999D02*
X217692914Y-118499999D01*
X217597676Y-118738094D02*
X217692914Y-118499999D01*
X217692914Y-118499999D02*
X217597676Y-118261904D01*
X217883390Y-118642856D02*
X217692914Y-118499999D01*
X217692914Y-118499999D02*
X217883390Y-118357142D01*
X218045180Y-119493873D02*
X217807085Y-119493873D01*
X217902323Y-119255778D02*
X217807085Y-119493873D01*
X217807085Y-119493873D02*
X217902323Y-119731968D01*
X217616609Y-119351016D02*
X217807085Y-119493873D01*
X217807085Y-119493873D02*
X217616609Y-119636730D01*
X183407200Y-107583332D02*
X183454819Y-107440475D01*
X183454819Y-107440475D02*
X183454819Y-107202380D01*
X183454819Y-107202380D02*
X183407200Y-107107142D01*
X183407200Y-107107142D02*
X183359580Y-107059523D01*
X183359580Y-107059523D02*
X183264342Y-107011904D01*
X183264342Y-107011904D02*
X183169104Y-107011904D01*
X183169104Y-107011904D02*
X183073866Y-107059523D01*
X183073866Y-107059523D02*
X183026247Y-107107142D01*
X183026247Y-107107142D02*
X182978628Y-107202380D01*
X182978628Y-107202380D02*
X182931009Y-107392856D01*
X182931009Y-107392856D02*
X182883390Y-107488094D01*
X182883390Y-107488094D02*
X182835771Y-107535713D01*
X182835771Y-107535713D02*
X182740533Y-107583332D01*
X182740533Y-107583332D02*
X182645295Y-107583332D01*
X182645295Y-107583332D02*
X182550057Y-107535713D01*
X182550057Y-107535713D02*
X182502438Y-107488094D01*
X182502438Y-107488094D02*
X182454819Y-107392856D01*
X182454819Y-107392856D02*
X182454819Y-107154761D01*
X182454819Y-107154761D02*
X182502438Y-107011904D01*
X182454819Y-106678570D02*
X183454819Y-106440475D01*
X183454819Y-106440475D02*
X182740533Y-106249999D01*
X182740533Y-106249999D02*
X183454819Y-106059523D01*
X183454819Y-106059523D02*
X182454819Y-105821428D01*
X182788152Y-105011904D02*
X183454819Y-105011904D01*
X182407200Y-105249999D02*
X183121485Y-105488094D01*
X183121485Y-105488094D02*
X183121485Y-104869047D01*
X183443518Y-109499999D02*
X183681613Y-109499999D01*
X183586375Y-109738094D02*
X183681613Y-109499999D01*
X183681613Y-109499999D02*
X183586375Y-109261904D01*
X183872089Y-109642856D02*
X183681613Y-109499999D01*
X183681613Y-109499999D02*
X183872089Y-109357142D01*
X183443518Y-109499999D02*
X183681613Y-109499999D01*
X183586375Y-109738094D02*
X183681613Y-109499999D01*
X183681613Y-109499999D02*
X183586375Y-109261904D01*
X183872089Y-109642856D02*
X183681613Y-109499999D01*
X183681613Y-109499999D02*
X183872089Y-109357142D01*
X182454819Y-148642857D02*
X181978628Y-148976190D01*
X182454819Y-149214285D02*
X181454819Y-149214285D01*
X181454819Y-149214285D02*
X181454819Y-148833333D01*
X181454819Y-148833333D02*
X181502438Y-148738095D01*
X181502438Y-148738095D02*
X181550057Y-148690476D01*
X181550057Y-148690476D02*
X181645295Y-148642857D01*
X181645295Y-148642857D02*
X181788152Y-148642857D01*
X181788152Y-148642857D02*
X181883390Y-148690476D01*
X181883390Y-148690476D02*
X181931009Y-148738095D01*
X181931009Y-148738095D02*
X181978628Y-148833333D01*
X181978628Y-148833333D02*
X181978628Y-149214285D01*
X182454819Y-147690476D02*
X182454819Y-148261904D01*
X182454819Y-147976190D02*
X181454819Y-147976190D01*
X181454819Y-147976190D02*
X181597676Y-148071428D01*
X181597676Y-148071428D02*
X181692914Y-148166666D01*
X181692914Y-148166666D02*
X181740533Y-148261904D01*
X181454819Y-146785714D02*
X181454819Y-147261904D01*
X181454819Y-147261904D02*
X181931009Y-147309523D01*
X181931009Y-147309523D02*
X181883390Y-147261904D01*
X181883390Y-147261904D02*
X181835771Y-147166666D01*
X181835771Y-147166666D02*
X181835771Y-146928571D01*
X181835771Y-146928571D02*
X181883390Y-146833333D01*
X181883390Y-146833333D02*
X181931009Y-146785714D01*
X181931009Y-146785714D02*
X182026247Y-146738095D01*
X182026247Y-146738095D02*
X182264342Y-146738095D01*
X182264342Y-146738095D02*
X182359580Y-146785714D01*
X182359580Y-146785714D02*
X182407200Y-146833333D01*
X182407200Y-146833333D02*
X182454819Y-146928571D01*
X182454819Y-146928571D02*
X182454819Y-147166666D01*
X182454819Y-147166666D02*
X182407200Y-147261904D01*
X182407200Y-147261904D02*
X182359580Y-147309523D01*
X196970833Y-131789580D02*
X196923214Y-131837200D01*
X196923214Y-131837200D02*
X196780357Y-131884819D01*
X196780357Y-131884819D02*
X196685119Y-131884819D01*
X196685119Y-131884819D02*
X196542262Y-131837200D01*
X196542262Y-131837200D02*
X196447024Y-131741961D01*
X196447024Y-131741961D02*
X196399405Y-131646723D01*
X196399405Y-131646723D02*
X196351786Y-131456247D01*
X196351786Y-131456247D02*
X196351786Y-131313390D01*
X196351786Y-131313390D02*
X196399405Y-131122914D01*
X196399405Y-131122914D02*
X196447024Y-131027676D01*
X196447024Y-131027676D02*
X196542262Y-130932438D01*
X196542262Y-130932438D02*
X196685119Y-130884819D01*
X196685119Y-130884819D02*
X196780357Y-130884819D01*
X196780357Y-130884819D02*
X196923214Y-130932438D01*
X196923214Y-130932438D02*
X196970833Y-130980057D01*
X197542262Y-131313390D02*
X197447024Y-131265771D01*
X197447024Y-131265771D02*
X197399405Y-131218152D01*
X197399405Y-131218152D02*
X197351786Y-131122914D01*
X197351786Y-131122914D02*
X197351786Y-131075295D01*
X197351786Y-131075295D02*
X197399405Y-130980057D01*
X197399405Y-130980057D02*
X197447024Y-130932438D01*
X197447024Y-130932438D02*
X197542262Y-130884819D01*
X197542262Y-130884819D02*
X197732738Y-130884819D01*
X197732738Y-130884819D02*
X197827976Y-130932438D01*
X197827976Y-130932438D02*
X197875595Y-130980057D01*
X197875595Y-130980057D02*
X197923214Y-131075295D01*
X197923214Y-131075295D02*
X197923214Y-131122914D01*
X197923214Y-131122914D02*
X197875595Y-131218152D01*
X197875595Y-131218152D02*
X197827976Y-131265771D01*
X197827976Y-131265771D02*
X197732738Y-131313390D01*
X197732738Y-131313390D02*
X197542262Y-131313390D01*
X197542262Y-131313390D02*
X197447024Y-131361009D01*
X197447024Y-131361009D02*
X197399405Y-131408628D01*
X197399405Y-131408628D02*
X197351786Y-131503866D01*
X197351786Y-131503866D02*
X197351786Y-131694342D01*
X197351786Y-131694342D02*
X197399405Y-131789580D01*
X197399405Y-131789580D02*
X197447024Y-131837200D01*
X197447024Y-131837200D02*
X197542262Y-131884819D01*
X197542262Y-131884819D02*
X197732738Y-131884819D01*
X197732738Y-131884819D02*
X197827976Y-131837200D01*
X197827976Y-131837200D02*
X197875595Y-131789580D01*
X197875595Y-131789580D02*
X197923214Y-131694342D01*
X197923214Y-131694342D02*
X197923214Y-131503866D01*
X197923214Y-131503866D02*
X197875595Y-131408628D01*
X197875595Y-131408628D02*
X197827976Y-131361009D01*
X197827976Y-131361009D02*
X197732738Y-131313390D01*
X186219642Y-127547080D02*
X186172023Y-127594700D01*
X186172023Y-127594700D02*
X186029166Y-127642319D01*
X186029166Y-127642319D02*
X185933928Y-127642319D01*
X185933928Y-127642319D02*
X185791071Y-127594700D01*
X185791071Y-127594700D02*
X185695833Y-127499461D01*
X185695833Y-127499461D02*
X185648214Y-127404223D01*
X185648214Y-127404223D02*
X185600595Y-127213747D01*
X185600595Y-127213747D02*
X185600595Y-127070890D01*
X185600595Y-127070890D02*
X185648214Y-126880414D01*
X185648214Y-126880414D02*
X185695833Y-126785176D01*
X185695833Y-126785176D02*
X185791071Y-126689938D01*
X185791071Y-126689938D02*
X185933928Y-126642319D01*
X185933928Y-126642319D02*
X186029166Y-126642319D01*
X186029166Y-126642319D02*
X186172023Y-126689938D01*
X186172023Y-126689938D02*
X186219642Y-126737557D01*
X187172023Y-127642319D02*
X186600595Y-127642319D01*
X186886309Y-127642319D02*
X186886309Y-126642319D01*
X186886309Y-126642319D02*
X186791071Y-126785176D01*
X186791071Y-126785176D02*
X186695833Y-126880414D01*
X186695833Y-126880414D02*
X186600595Y-126928033D01*
X187791071Y-126642319D02*
X187886309Y-126642319D01*
X187886309Y-126642319D02*
X187981547Y-126689938D01*
X187981547Y-126689938D02*
X188029166Y-126737557D01*
X188029166Y-126737557D02*
X188076785Y-126832795D01*
X188076785Y-126832795D02*
X188124404Y-127023271D01*
X188124404Y-127023271D02*
X188124404Y-127261366D01*
X188124404Y-127261366D02*
X188076785Y-127451842D01*
X188076785Y-127451842D02*
X188029166Y-127547080D01*
X188029166Y-127547080D02*
X187981547Y-127594700D01*
X187981547Y-127594700D02*
X187886309Y-127642319D01*
X187886309Y-127642319D02*
X187791071Y-127642319D01*
X187791071Y-127642319D02*
X187695833Y-127594700D01*
X187695833Y-127594700D02*
X187648214Y-127547080D01*
X187648214Y-127547080D02*
X187600595Y-127451842D01*
X187600595Y-127451842D02*
X187552976Y-127261366D01*
X187552976Y-127261366D02*
X187552976Y-127023271D01*
X187552976Y-127023271D02*
X187600595Y-126832795D01*
X187600595Y-126832795D02*
X187648214Y-126737557D01*
X187648214Y-126737557D02*
X187695833Y-126689938D01*
X187695833Y-126689938D02*
X187791071Y-126642319D01*
X199454819Y-109166666D02*
X198978628Y-109499999D01*
X199454819Y-109738094D02*
X198454819Y-109738094D01*
X198454819Y-109738094D02*
X198454819Y-109357142D01*
X198454819Y-109357142D02*
X198502438Y-109261904D01*
X198502438Y-109261904D02*
X198550057Y-109214285D01*
X198550057Y-109214285D02*
X198645295Y-109166666D01*
X198645295Y-109166666D02*
X198788152Y-109166666D01*
X198788152Y-109166666D02*
X198883390Y-109214285D01*
X198883390Y-109214285D02*
X198931009Y-109261904D01*
X198931009Y-109261904D02*
X198978628Y-109357142D01*
X198978628Y-109357142D02*
X198978628Y-109738094D01*
X198454819Y-108833332D02*
X198454819Y-108214285D01*
X198454819Y-108214285D02*
X198835771Y-108547618D01*
X198835771Y-108547618D02*
X198835771Y-108404761D01*
X198835771Y-108404761D02*
X198883390Y-108309523D01*
X198883390Y-108309523D02*
X198931009Y-108261904D01*
X198931009Y-108261904D02*
X199026247Y-108214285D01*
X199026247Y-108214285D02*
X199264342Y-108214285D01*
X199264342Y-108214285D02*
X199359580Y-108261904D01*
X199359580Y-108261904D02*
X199407200Y-108309523D01*
X199407200Y-108309523D02*
X199454819Y-108404761D01*
X199454819Y-108404761D02*
X199454819Y-108690475D01*
X199454819Y-108690475D02*
X199407200Y-108785713D01*
X199407200Y-108785713D02*
X199359580Y-108833332D01*
X194789580Y-104666666D02*
X194837200Y-104714285D01*
X194837200Y-104714285D02*
X194884819Y-104857142D01*
X194884819Y-104857142D02*
X194884819Y-104952380D01*
X194884819Y-104952380D02*
X194837200Y-105095237D01*
X194837200Y-105095237D02*
X194741961Y-105190475D01*
X194741961Y-105190475D02*
X194646723Y-105238094D01*
X194646723Y-105238094D02*
X194456247Y-105285713D01*
X194456247Y-105285713D02*
X194313390Y-105285713D01*
X194313390Y-105285713D02*
X194122914Y-105238094D01*
X194122914Y-105238094D02*
X194027676Y-105190475D01*
X194027676Y-105190475D02*
X193932438Y-105095237D01*
X193932438Y-105095237D02*
X193884819Y-104952380D01*
X193884819Y-104952380D02*
X193884819Y-104857142D01*
X193884819Y-104857142D02*
X193932438Y-104714285D01*
X193932438Y-104714285D02*
X193980057Y-104666666D01*
X193884819Y-104333332D02*
X193884819Y-103714285D01*
X193884819Y-103714285D02*
X194265771Y-104047618D01*
X194265771Y-104047618D02*
X194265771Y-103904761D01*
X194265771Y-103904761D02*
X194313390Y-103809523D01*
X194313390Y-103809523D02*
X194361009Y-103761904D01*
X194361009Y-103761904D02*
X194456247Y-103714285D01*
X194456247Y-103714285D02*
X194694342Y-103714285D01*
X194694342Y-103714285D02*
X194789580Y-103761904D01*
X194789580Y-103761904D02*
X194837200Y-103809523D01*
X194837200Y-103809523D02*
X194884819Y-103904761D01*
X194884819Y-103904761D02*
X194884819Y-104190475D01*
X194884819Y-104190475D02*
X194837200Y-104285713D01*
X194837200Y-104285713D02*
X194789580Y-104333332D01*
X191024819Y-128642857D02*
X190548628Y-128976190D01*
X191024819Y-129214285D02*
X190024819Y-129214285D01*
X190024819Y-129214285D02*
X190024819Y-128833333D01*
X190024819Y-128833333D02*
X190072438Y-128738095D01*
X190072438Y-128738095D02*
X190120057Y-128690476D01*
X190120057Y-128690476D02*
X190215295Y-128642857D01*
X190215295Y-128642857D02*
X190358152Y-128642857D01*
X190358152Y-128642857D02*
X190453390Y-128690476D01*
X190453390Y-128690476D02*
X190501009Y-128738095D01*
X190501009Y-128738095D02*
X190548628Y-128833333D01*
X190548628Y-128833333D02*
X190548628Y-129214285D01*
X191024819Y-127690476D02*
X191024819Y-128261904D01*
X191024819Y-127976190D02*
X190024819Y-127976190D01*
X190024819Y-127976190D02*
X190167676Y-128071428D01*
X190167676Y-128071428D02*
X190262914Y-128166666D01*
X190262914Y-128166666D02*
X190310533Y-128261904D01*
X190024819Y-127357142D02*
X190024819Y-126738095D01*
X190024819Y-126738095D02*
X190405771Y-127071428D01*
X190405771Y-127071428D02*
X190405771Y-126928571D01*
X190405771Y-126928571D02*
X190453390Y-126833333D01*
X190453390Y-126833333D02*
X190501009Y-126785714D01*
X190501009Y-126785714D02*
X190596247Y-126738095D01*
X190596247Y-126738095D02*
X190834342Y-126738095D01*
X190834342Y-126738095D02*
X190929580Y-126785714D01*
X190929580Y-126785714D02*
X190977200Y-126833333D01*
X190977200Y-126833333D02*
X191024819Y-126928571D01*
X191024819Y-126928571D02*
X191024819Y-127214285D01*
X191024819Y-127214285D02*
X190977200Y-127309523D01*
X190977200Y-127309523D02*
X190929580Y-127357142D01*
X197833333Y-136789580D02*
X197785714Y-136837200D01*
X197785714Y-136837200D02*
X197642857Y-136884819D01*
X197642857Y-136884819D02*
X197547619Y-136884819D01*
X197547619Y-136884819D02*
X197404762Y-136837200D01*
X197404762Y-136837200D02*
X197309524Y-136741961D01*
X197309524Y-136741961D02*
X197261905Y-136646723D01*
X197261905Y-136646723D02*
X197214286Y-136456247D01*
X197214286Y-136456247D02*
X197214286Y-136313390D01*
X197214286Y-136313390D02*
X197261905Y-136122914D01*
X197261905Y-136122914D02*
X197309524Y-136027676D01*
X197309524Y-136027676D02*
X197404762Y-135932438D01*
X197404762Y-135932438D02*
X197547619Y-135884819D01*
X197547619Y-135884819D02*
X197642857Y-135884819D01*
X197642857Y-135884819D02*
X197785714Y-135932438D01*
X197785714Y-135932438D02*
X197833333Y-135980057D01*
X198166667Y-135884819D02*
X198833333Y-135884819D01*
X198833333Y-135884819D02*
X198404762Y-136884819D01*
X211190333Y-148359580D02*
X211142714Y-148407200D01*
X211142714Y-148407200D02*
X210999857Y-148454819D01*
X210999857Y-148454819D02*
X210904619Y-148454819D01*
X210904619Y-148454819D02*
X210761762Y-148407200D01*
X210761762Y-148407200D02*
X210666524Y-148311961D01*
X210666524Y-148311961D02*
X210618905Y-148216723D01*
X210618905Y-148216723D02*
X210571286Y-148026247D01*
X210571286Y-148026247D02*
X210571286Y-147883390D01*
X210571286Y-147883390D02*
X210618905Y-147692914D01*
X210618905Y-147692914D02*
X210666524Y-147597676D01*
X210666524Y-147597676D02*
X210761762Y-147502438D01*
X210761762Y-147502438D02*
X210904619Y-147454819D01*
X210904619Y-147454819D02*
X210999857Y-147454819D01*
X210999857Y-147454819D02*
X211142714Y-147502438D01*
X211142714Y-147502438D02*
X211190333Y-147550057D01*
X212190333Y-148454819D02*
X211857000Y-147978628D01*
X211618905Y-148454819D02*
X211618905Y-147454819D01*
X211618905Y-147454819D02*
X211999857Y-147454819D01*
X211999857Y-147454819D02*
X212095095Y-147502438D01*
X212095095Y-147502438D02*
X212142714Y-147550057D01*
X212142714Y-147550057D02*
X212190333Y-147645295D01*
X212190333Y-147645295D02*
X212190333Y-147788152D01*
X212190333Y-147788152D02*
X212142714Y-147883390D01*
X212142714Y-147883390D02*
X212095095Y-147931009D01*
X212095095Y-147931009D02*
X211999857Y-147978628D01*
X211999857Y-147978628D02*
X211618905Y-147978628D01*
X212523667Y-147454819D02*
X213142714Y-147454819D01*
X213142714Y-147454819D02*
X212809381Y-147835771D01*
X212809381Y-147835771D02*
X212952238Y-147835771D01*
X212952238Y-147835771D02*
X213047476Y-147883390D01*
X213047476Y-147883390D02*
X213095095Y-147931009D01*
X213095095Y-147931009D02*
X213142714Y-148026247D01*
X213142714Y-148026247D02*
X213142714Y-148264342D01*
X213142714Y-148264342D02*
X213095095Y-148359580D01*
X213095095Y-148359580D02*
X213047476Y-148407200D01*
X213047476Y-148407200D02*
X212952238Y-148454819D01*
X212952238Y-148454819D02*
X212666524Y-148454819D01*
X212666524Y-148454819D02*
X212571286Y-148407200D01*
X212571286Y-148407200D02*
X212523667Y-148359580D01*
X195516892Y-159359580D02*
X195469273Y-159407200D01*
X195469273Y-159407200D02*
X195326416Y-159454819D01*
X195326416Y-159454819D02*
X195231178Y-159454819D01*
X195231178Y-159454819D02*
X195088321Y-159407200D01*
X195088321Y-159407200D02*
X194993083Y-159311961D01*
X194993083Y-159311961D02*
X194945464Y-159216723D01*
X194945464Y-159216723D02*
X194897845Y-159026247D01*
X194897845Y-159026247D02*
X194897845Y-158883390D01*
X194897845Y-158883390D02*
X194945464Y-158692914D01*
X194945464Y-158692914D02*
X194993083Y-158597676D01*
X194993083Y-158597676D02*
X195088321Y-158502438D01*
X195088321Y-158502438D02*
X195231178Y-158454819D01*
X195231178Y-158454819D02*
X195326416Y-158454819D01*
X195326416Y-158454819D02*
X195469273Y-158502438D01*
X195469273Y-158502438D02*
X195516892Y-158550057D01*
X196469273Y-159454819D02*
X195897845Y-159454819D01*
X196183559Y-159454819D02*
X196183559Y-158454819D01*
X196183559Y-158454819D02*
X196088321Y-158597676D01*
X196088321Y-158597676D02*
X195993083Y-158692914D01*
X195993083Y-158692914D02*
X195897845Y-158740533D01*
X197326416Y-158454819D02*
X197135940Y-158454819D01*
X197135940Y-158454819D02*
X197040702Y-158502438D01*
X197040702Y-158502438D02*
X196993083Y-158550057D01*
X196993083Y-158550057D02*
X196897845Y-158692914D01*
X196897845Y-158692914D02*
X196850226Y-158883390D01*
X196850226Y-158883390D02*
X196850226Y-159264342D01*
X196850226Y-159264342D02*
X196897845Y-159359580D01*
X196897845Y-159359580D02*
X196945464Y-159407200D01*
X196945464Y-159407200D02*
X197040702Y-159454819D01*
X197040702Y-159454819D02*
X197231178Y-159454819D01*
X197231178Y-159454819D02*
X197326416Y-159407200D01*
X197326416Y-159407200D02*
X197374035Y-159359580D01*
X197374035Y-159359580D02*
X197421654Y-159264342D01*
X197421654Y-159264342D02*
X197421654Y-159026247D01*
X197421654Y-159026247D02*
X197374035Y-158931009D01*
X197374035Y-158931009D02*
X197326416Y-158883390D01*
X197326416Y-158883390D02*
X197231178Y-158835771D01*
X197231178Y-158835771D02*
X197040702Y-158835771D01*
X197040702Y-158835771D02*
X196945464Y-158883390D01*
X196945464Y-158883390D02*
X196897845Y-158931009D01*
X196897845Y-158931009D02*
X196850226Y-159026247D01*
X206634761Y-135550057D02*
X206539523Y-135502438D01*
X206539523Y-135502438D02*
X206444285Y-135407200D01*
X206444285Y-135407200D02*
X206301428Y-135264342D01*
X206301428Y-135264342D02*
X206206190Y-135216723D01*
X206206190Y-135216723D02*
X206110952Y-135216723D01*
X206158571Y-135454819D02*
X206063333Y-135407200D01*
X206063333Y-135407200D02*
X205968095Y-135311961D01*
X205968095Y-135311961D02*
X205920476Y-135121485D01*
X205920476Y-135121485D02*
X205920476Y-134788152D01*
X205920476Y-134788152D02*
X205968095Y-134597676D01*
X205968095Y-134597676D02*
X206063333Y-134502438D01*
X206063333Y-134502438D02*
X206158571Y-134454819D01*
X206158571Y-134454819D02*
X206349047Y-134454819D01*
X206349047Y-134454819D02*
X206444285Y-134502438D01*
X206444285Y-134502438D02*
X206539523Y-134597676D01*
X206539523Y-134597676D02*
X206587142Y-134788152D01*
X206587142Y-134788152D02*
X206587142Y-135121485D01*
X206587142Y-135121485D02*
X206539523Y-135311961D01*
X206539523Y-135311961D02*
X206444285Y-135407200D01*
X206444285Y-135407200D02*
X206349047Y-135454819D01*
X206349047Y-135454819D02*
X206158571Y-135454819D01*
X207539523Y-135454819D02*
X206968095Y-135454819D01*
X207253809Y-135454819D02*
X207253809Y-134454819D01*
X207253809Y-134454819D02*
X207158571Y-134597676D01*
X207158571Y-134597676D02*
X207063333Y-134692914D01*
X207063333Y-134692914D02*
X206968095Y-134740533D01*
X187654819Y-151159154D02*
X188464342Y-151159154D01*
X188464342Y-151159154D02*
X188559580Y-151111535D01*
X188559580Y-151111535D02*
X188607200Y-151063916D01*
X188607200Y-151063916D02*
X188654819Y-150968678D01*
X188654819Y-150968678D02*
X188654819Y-150778202D01*
X188654819Y-150778202D02*
X188607200Y-150682964D01*
X188607200Y-150682964D02*
X188559580Y-150635345D01*
X188559580Y-150635345D02*
X188464342Y-150587726D01*
X188464342Y-150587726D02*
X187654819Y-150587726D01*
X187654819Y-149635345D02*
X187654819Y-150111535D01*
X187654819Y-150111535D02*
X188131009Y-150159154D01*
X188131009Y-150159154D02*
X188083390Y-150111535D01*
X188083390Y-150111535D02*
X188035771Y-150016297D01*
X188035771Y-150016297D02*
X188035771Y-149778202D01*
X188035771Y-149778202D02*
X188083390Y-149682964D01*
X188083390Y-149682964D02*
X188131009Y-149635345D01*
X188131009Y-149635345D02*
X188226247Y-149587726D01*
X188226247Y-149587726D02*
X188464342Y-149587726D01*
X188464342Y-149587726D02*
X188559580Y-149635345D01*
X188559580Y-149635345D02*
X188607200Y-149682964D01*
X188607200Y-149682964D02*
X188654819Y-149778202D01*
X188654819Y-149778202D02*
X188654819Y-150016297D01*
X188654819Y-150016297D02*
X188607200Y-150111535D01*
X188607200Y-150111535D02*
X188559580Y-150159154D01*
X222929819Y-115738094D02*
X221929819Y-115738094D01*
X221929819Y-115738094D02*
X221929819Y-115499999D01*
X221929819Y-115499999D02*
X221977438Y-115357142D01*
X221977438Y-115357142D02*
X222072676Y-115261904D01*
X222072676Y-115261904D02*
X222167914Y-115214285D01*
X222167914Y-115214285D02*
X222358390Y-115166666D01*
X222358390Y-115166666D02*
X222501247Y-115166666D01*
X222501247Y-115166666D02*
X222691723Y-115214285D01*
X222691723Y-115214285D02*
X222786961Y-115261904D01*
X222786961Y-115261904D02*
X222882200Y-115357142D01*
X222882200Y-115357142D02*
X222929819Y-115499999D01*
X222929819Y-115499999D02*
X222929819Y-115738094D01*
X221929819Y-114833332D02*
X221929819Y-114214285D01*
X221929819Y-114214285D02*
X222310771Y-114547618D01*
X222310771Y-114547618D02*
X222310771Y-114404761D01*
X222310771Y-114404761D02*
X222358390Y-114309523D01*
X222358390Y-114309523D02*
X222406009Y-114261904D01*
X222406009Y-114261904D02*
X222501247Y-114214285D01*
X222501247Y-114214285D02*
X222739342Y-114214285D01*
X222739342Y-114214285D02*
X222834580Y-114261904D01*
X222834580Y-114261904D02*
X222882200Y-114309523D01*
X222882200Y-114309523D02*
X222929819Y-114404761D01*
X222929819Y-114404761D02*
X222929819Y-114690475D01*
X222929819Y-114690475D02*
X222882200Y-114785713D01*
X222882200Y-114785713D02*
X222834580Y-114833332D01*
X202454819Y-143642857D02*
X201978628Y-143976190D01*
X202454819Y-144214285D02*
X201454819Y-144214285D01*
X201454819Y-144214285D02*
X201454819Y-143833333D01*
X201454819Y-143833333D02*
X201502438Y-143738095D01*
X201502438Y-143738095D02*
X201550057Y-143690476D01*
X201550057Y-143690476D02*
X201645295Y-143642857D01*
X201645295Y-143642857D02*
X201788152Y-143642857D01*
X201788152Y-143642857D02*
X201883390Y-143690476D01*
X201883390Y-143690476D02*
X201931009Y-143738095D01*
X201931009Y-143738095D02*
X201978628Y-143833333D01*
X201978628Y-143833333D02*
X201978628Y-144214285D01*
X202454819Y-142690476D02*
X202454819Y-143261904D01*
X202454819Y-142976190D02*
X201454819Y-142976190D01*
X201454819Y-142976190D02*
X201597676Y-143071428D01*
X201597676Y-143071428D02*
X201692914Y-143166666D01*
X201692914Y-143166666D02*
X201740533Y-143261904D01*
X202454819Y-141738095D02*
X202454819Y-142309523D01*
X202454819Y-142023809D02*
X201454819Y-142023809D01*
X201454819Y-142023809D02*
X201597676Y-142119047D01*
X201597676Y-142119047D02*
X201692914Y-142214285D01*
X201692914Y-142214285D02*
X201740533Y-142309523D01*
X193357142Y-137454819D02*
X193023809Y-136978628D01*
X192785714Y-137454819D02*
X192785714Y-136454819D01*
X192785714Y-136454819D02*
X193166666Y-136454819D01*
X193166666Y-136454819D02*
X193261904Y-136502438D01*
X193261904Y-136502438D02*
X193309523Y-136550057D01*
X193309523Y-136550057D02*
X193357142Y-136645295D01*
X193357142Y-136645295D02*
X193357142Y-136788152D01*
X193357142Y-136788152D02*
X193309523Y-136883390D01*
X193309523Y-136883390D02*
X193261904Y-136931009D01*
X193261904Y-136931009D02*
X193166666Y-136978628D01*
X193166666Y-136978628D02*
X192785714Y-136978628D01*
X194309523Y-137454819D02*
X193738095Y-137454819D01*
X194023809Y-137454819D02*
X194023809Y-136454819D01*
X194023809Y-136454819D02*
X193928571Y-136597676D01*
X193928571Y-136597676D02*
X193833333Y-136692914D01*
X193833333Y-136692914D02*
X193738095Y-136740533D01*
X195166666Y-136788152D02*
X195166666Y-137454819D01*
X194928571Y-136407200D02*
X194690476Y-137121485D01*
X194690476Y-137121485D02*
X195309523Y-137121485D01*
X231842801Y-99666667D02*
X231795181Y-99809524D01*
X231795181Y-99809524D02*
X231795181Y-100047619D01*
X231795181Y-100047619D02*
X231842801Y-100142857D01*
X231842801Y-100142857D02*
X231890420Y-100190476D01*
X231890420Y-100190476D02*
X231985658Y-100238095D01*
X231985658Y-100238095D02*
X232080896Y-100238095D01*
X232080896Y-100238095D02*
X232176134Y-100190476D01*
X232176134Y-100190476D02*
X232223753Y-100142857D01*
X232223753Y-100142857D02*
X232271372Y-100047619D01*
X232271372Y-100047619D02*
X232318991Y-99857143D01*
X232318991Y-99857143D02*
X232366610Y-99761905D01*
X232366610Y-99761905D02*
X232414229Y-99714286D01*
X232414229Y-99714286D02*
X232509467Y-99666667D01*
X232509467Y-99666667D02*
X232604705Y-99666667D01*
X232604705Y-99666667D02*
X232699943Y-99714286D01*
X232699943Y-99714286D02*
X232747562Y-99761905D01*
X232747562Y-99761905D02*
X232795181Y-99857143D01*
X232795181Y-99857143D02*
X232795181Y-100095238D01*
X232795181Y-100095238D02*
X232747562Y-100238095D01*
X232795181Y-100571429D02*
X231795181Y-100809524D01*
X231795181Y-100809524D02*
X232509467Y-101000000D01*
X232509467Y-101000000D02*
X231795181Y-101190476D01*
X231795181Y-101190476D02*
X232795181Y-101428572D01*
X231795181Y-102333333D02*
X231795181Y-101761905D01*
X231795181Y-102047619D02*
X232795181Y-102047619D01*
X232795181Y-102047619D02*
X232652324Y-101952381D01*
X232652324Y-101952381D02*
X232557086Y-101857143D01*
X232557086Y-101857143D02*
X232509467Y-101761905D01*
X235466120Y-97749999D02*
X235704215Y-97749999D01*
X235608977Y-97988094D02*
X235704215Y-97749999D01*
X235704215Y-97749999D02*
X235608977Y-97511904D01*
X235894691Y-97892856D02*
X235704215Y-97749999D01*
X235704215Y-97749999D02*
X235894691Y-97607142D01*
X236556481Y-97750000D02*
X236318386Y-97750000D01*
X236413624Y-97511905D02*
X236318386Y-97750000D01*
X236318386Y-97750000D02*
X236413624Y-97988095D01*
X236127910Y-97607143D02*
X236318386Y-97750000D01*
X236318386Y-97750000D02*
X236127910Y-97892857D01*
X230954819Y-133166666D02*
X230478628Y-133499999D01*
X230954819Y-133738094D02*
X229954819Y-133738094D01*
X229954819Y-133738094D02*
X229954819Y-133357142D01*
X229954819Y-133357142D02*
X230002438Y-133261904D01*
X230002438Y-133261904D02*
X230050057Y-133214285D01*
X230050057Y-133214285D02*
X230145295Y-133166666D01*
X230145295Y-133166666D02*
X230288152Y-133166666D01*
X230288152Y-133166666D02*
X230383390Y-133214285D01*
X230383390Y-133214285D02*
X230431009Y-133261904D01*
X230431009Y-133261904D02*
X230478628Y-133357142D01*
X230478628Y-133357142D02*
X230478628Y-133738094D01*
X229954819Y-132833332D02*
X229954819Y-132166666D01*
X229954819Y-132166666D02*
X230954819Y-132595237D01*
X234859580Y-135166666D02*
X234907200Y-135214285D01*
X234907200Y-135214285D02*
X234954819Y-135357142D01*
X234954819Y-135357142D02*
X234954819Y-135452380D01*
X234954819Y-135452380D02*
X234907200Y-135595237D01*
X234907200Y-135595237D02*
X234811961Y-135690475D01*
X234811961Y-135690475D02*
X234716723Y-135738094D01*
X234716723Y-135738094D02*
X234526247Y-135785713D01*
X234526247Y-135785713D02*
X234383390Y-135785713D01*
X234383390Y-135785713D02*
X234192914Y-135738094D01*
X234192914Y-135738094D02*
X234097676Y-135690475D01*
X234097676Y-135690475D02*
X234002438Y-135595237D01*
X234002438Y-135595237D02*
X233954819Y-135452380D01*
X233954819Y-135452380D02*
X233954819Y-135357142D01*
X233954819Y-135357142D02*
X234002438Y-135214285D01*
X234002438Y-135214285D02*
X234050057Y-135166666D01*
X234954819Y-134214285D02*
X234954819Y-134785713D01*
X234954819Y-134499999D02*
X233954819Y-134499999D01*
X233954819Y-134499999D02*
X234097676Y-134595237D01*
X234097676Y-134595237D02*
X234192914Y-134690475D01*
X234192914Y-134690475D02*
X234240533Y-134785713D01*
X187359580Y-147242857D02*
X187407200Y-147290476D01*
X187407200Y-147290476D02*
X187454819Y-147433333D01*
X187454819Y-147433333D02*
X187454819Y-147528571D01*
X187454819Y-147528571D02*
X187407200Y-147671428D01*
X187407200Y-147671428D02*
X187311961Y-147766666D01*
X187311961Y-147766666D02*
X187216723Y-147814285D01*
X187216723Y-147814285D02*
X187026247Y-147861904D01*
X187026247Y-147861904D02*
X186883390Y-147861904D01*
X186883390Y-147861904D02*
X186692914Y-147814285D01*
X186692914Y-147814285D02*
X186597676Y-147766666D01*
X186597676Y-147766666D02*
X186502438Y-147671428D01*
X186502438Y-147671428D02*
X186454819Y-147528571D01*
X186454819Y-147528571D02*
X186454819Y-147433333D01*
X186454819Y-147433333D02*
X186502438Y-147290476D01*
X186502438Y-147290476D02*
X186550057Y-147242857D01*
X187454819Y-146290476D02*
X187454819Y-146861904D01*
X187454819Y-146576190D02*
X186454819Y-146576190D01*
X186454819Y-146576190D02*
X186597676Y-146671428D01*
X186597676Y-146671428D02*
X186692914Y-146766666D01*
X186692914Y-146766666D02*
X186740533Y-146861904D01*
X186454819Y-145957142D02*
X186454819Y-145290476D01*
X186454819Y-145290476D02*
X187454819Y-145719047D01*
X199833333Y-159359580D02*
X199785714Y-159407200D01*
X199785714Y-159407200D02*
X199642857Y-159454819D01*
X199642857Y-159454819D02*
X199547619Y-159454819D01*
X199547619Y-159454819D02*
X199404762Y-159407200D01*
X199404762Y-159407200D02*
X199309524Y-159311961D01*
X199309524Y-159311961D02*
X199261905Y-159216723D01*
X199261905Y-159216723D02*
X199214286Y-159026247D01*
X199214286Y-159026247D02*
X199214286Y-158883390D01*
X199214286Y-158883390D02*
X199261905Y-158692914D01*
X199261905Y-158692914D02*
X199309524Y-158597676D01*
X199309524Y-158597676D02*
X199404762Y-158502438D01*
X199404762Y-158502438D02*
X199547619Y-158454819D01*
X199547619Y-158454819D02*
X199642857Y-158454819D01*
X199642857Y-158454819D02*
X199785714Y-158502438D01*
X199785714Y-158502438D02*
X199833333Y-158550057D01*
X200214286Y-158550057D02*
X200261905Y-158502438D01*
X200261905Y-158502438D02*
X200357143Y-158454819D01*
X200357143Y-158454819D02*
X200595238Y-158454819D01*
X200595238Y-158454819D02*
X200690476Y-158502438D01*
X200690476Y-158502438D02*
X200738095Y-158550057D01*
X200738095Y-158550057D02*
X200785714Y-158645295D01*
X200785714Y-158645295D02*
X200785714Y-158740533D01*
X200785714Y-158740533D02*
X200738095Y-158883390D01*
X200738095Y-158883390D02*
X200166667Y-159454819D01*
X200166667Y-159454819D02*
X200785714Y-159454819D01*
X222954819Y-120642857D02*
X222478628Y-120976190D01*
X222954819Y-121214285D02*
X221954819Y-121214285D01*
X221954819Y-121214285D02*
X221954819Y-120833333D01*
X221954819Y-120833333D02*
X222002438Y-120738095D01*
X222002438Y-120738095D02*
X222050057Y-120690476D01*
X222050057Y-120690476D02*
X222145295Y-120642857D01*
X222145295Y-120642857D02*
X222288152Y-120642857D01*
X222288152Y-120642857D02*
X222383390Y-120690476D01*
X222383390Y-120690476D02*
X222431009Y-120738095D01*
X222431009Y-120738095D02*
X222478628Y-120833333D01*
X222478628Y-120833333D02*
X222478628Y-121214285D01*
X222954819Y-119690476D02*
X222954819Y-120261904D01*
X222954819Y-119976190D02*
X221954819Y-119976190D01*
X221954819Y-119976190D02*
X222097676Y-120071428D01*
X222097676Y-120071428D02*
X222192914Y-120166666D01*
X222192914Y-120166666D02*
X222240533Y-120261904D01*
X221954819Y-119071428D02*
X221954819Y-118976190D01*
X221954819Y-118976190D02*
X222002438Y-118880952D01*
X222002438Y-118880952D02*
X222050057Y-118833333D01*
X222050057Y-118833333D02*
X222145295Y-118785714D01*
X222145295Y-118785714D02*
X222335771Y-118738095D01*
X222335771Y-118738095D02*
X222573866Y-118738095D01*
X222573866Y-118738095D02*
X222764342Y-118785714D01*
X222764342Y-118785714D02*
X222859580Y-118833333D01*
X222859580Y-118833333D02*
X222907200Y-118880952D01*
X222907200Y-118880952D02*
X222954819Y-118976190D01*
X222954819Y-118976190D02*
X222954819Y-119071428D01*
X222954819Y-119071428D02*
X222907200Y-119166666D01*
X222907200Y-119166666D02*
X222859580Y-119214285D01*
X222859580Y-119214285D02*
X222764342Y-119261904D01*
X222764342Y-119261904D02*
X222573866Y-119309523D01*
X222573866Y-119309523D02*
X222335771Y-119309523D01*
X222335771Y-119309523D02*
X222145295Y-119261904D01*
X222145295Y-119261904D02*
X222050057Y-119214285D01*
X222050057Y-119214285D02*
X222002438Y-119166666D01*
X222002438Y-119166666D02*
X221954819Y-119071428D01*
X230454819Y-145166666D02*
X229978628Y-145499999D01*
X230454819Y-145738094D02*
X229454819Y-145738094D01*
X229454819Y-145738094D02*
X229454819Y-145357142D01*
X229454819Y-145357142D02*
X229502438Y-145261904D01*
X229502438Y-145261904D02*
X229550057Y-145214285D01*
X229550057Y-145214285D02*
X229645295Y-145166666D01*
X229645295Y-145166666D02*
X229788152Y-145166666D01*
X229788152Y-145166666D02*
X229883390Y-145214285D01*
X229883390Y-145214285D02*
X229931009Y-145261904D01*
X229931009Y-145261904D02*
X229978628Y-145357142D01*
X229978628Y-145357142D02*
X229978628Y-145738094D01*
X229454819Y-144261904D02*
X229454819Y-144738094D01*
X229454819Y-144738094D02*
X229931009Y-144785713D01*
X229931009Y-144785713D02*
X229883390Y-144738094D01*
X229883390Y-144738094D02*
X229835771Y-144642856D01*
X229835771Y-144642856D02*
X229835771Y-144404761D01*
X229835771Y-144404761D02*
X229883390Y-144309523D01*
X229883390Y-144309523D02*
X229931009Y-144261904D01*
X229931009Y-144261904D02*
X230026247Y-144214285D01*
X230026247Y-144214285D02*
X230264342Y-144214285D01*
X230264342Y-144214285D02*
X230359580Y-144261904D01*
X230359580Y-144261904D02*
X230407200Y-144309523D01*
X230407200Y-144309523D02*
X230454819Y-144404761D01*
X230454819Y-144404761D02*
X230454819Y-144642856D01*
X230454819Y-144642856D02*
X230407200Y-144738094D01*
X230407200Y-144738094D02*
X230359580Y-144785713D01*
X192407200Y-118583332D02*
X192454819Y-118440475D01*
X192454819Y-118440475D02*
X192454819Y-118202380D01*
X192454819Y-118202380D02*
X192407200Y-118107142D01*
X192407200Y-118107142D02*
X192359580Y-118059523D01*
X192359580Y-118059523D02*
X192264342Y-118011904D01*
X192264342Y-118011904D02*
X192169104Y-118011904D01*
X192169104Y-118011904D02*
X192073866Y-118059523D01*
X192073866Y-118059523D02*
X192026247Y-118107142D01*
X192026247Y-118107142D02*
X191978628Y-118202380D01*
X191978628Y-118202380D02*
X191931009Y-118392856D01*
X191931009Y-118392856D02*
X191883390Y-118488094D01*
X191883390Y-118488094D02*
X191835771Y-118535713D01*
X191835771Y-118535713D02*
X191740533Y-118583332D01*
X191740533Y-118583332D02*
X191645295Y-118583332D01*
X191645295Y-118583332D02*
X191550057Y-118535713D01*
X191550057Y-118535713D02*
X191502438Y-118488094D01*
X191502438Y-118488094D02*
X191454819Y-118392856D01*
X191454819Y-118392856D02*
X191454819Y-118154761D01*
X191454819Y-118154761D02*
X191502438Y-118011904D01*
X191454819Y-117678570D02*
X192454819Y-117440475D01*
X192454819Y-117440475D02*
X191740533Y-117249999D01*
X191740533Y-117249999D02*
X192454819Y-117059523D01*
X192454819Y-117059523D02*
X191454819Y-116821428D01*
X191550057Y-116488094D02*
X191502438Y-116440475D01*
X191502438Y-116440475D02*
X191454819Y-116345237D01*
X191454819Y-116345237D02*
X191454819Y-116107142D01*
X191454819Y-116107142D02*
X191502438Y-116011904D01*
X191502438Y-116011904D02*
X191550057Y-115964285D01*
X191550057Y-115964285D02*
X191645295Y-115916666D01*
X191645295Y-115916666D02*
X191740533Y-115916666D01*
X191740533Y-115916666D02*
X191883390Y-115964285D01*
X191883390Y-115964285D02*
X192454819Y-116535713D01*
X192454819Y-116535713D02*
X192454819Y-115916666D01*
X183182918Y-120399999D02*
X183421013Y-120399999D01*
X183325775Y-120638094D02*
X183421013Y-120399999D01*
X183421013Y-120399999D02*
X183325775Y-120161904D01*
X183611489Y-120542856D02*
X183421013Y-120399999D01*
X183421013Y-120399999D02*
X183611489Y-120257142D01*
X183182918Y-120399999D02*
X183421013Y-120399999D01*
X183325775Y-120638094D02*
X183421013Y-120399999D01*
X183421013Y-120399999D02*
X183325775Y-120161904D01*
X183611489Y-120542856D02*
X183421013Y-120399999D01*
X183421013Y-120399999D02*
X183611489Y-120257142D01*
X231219642Y-92609580D02*
X231172023Y-92657200D01*
X231172023Y-92657200D02*
X231029166Y-92704819D01*
X231029166Y-92704819D02*
X230933928Y-92704819D01*
X230933928Y-92704819D02*
X230791071Y-92657200D01*
X230791071Y-92657200D02*
X230695833Y-92561961D01*
X230695833Y-92561961D02*
X230648214Y-92466723D01*
X230648214Y-92466723D02*
X230600595Y-92276247D01*
X230600595Y-92276247D02*
X230600595Y-92133390D01*
X230600595Y-92133390D02*
X230648214Y-91942914D01*
X230648214Y-91942914D02*
X230695833Y-91847676D01*
X230695833Y-91847676D02*
X230791071Y-91752438D01*
X230791071Y-91752438D02*
X230933928Y-91704819D01*
X230933928Y-91704819D02*
X231029166Y-91704819D01*
X231029166Y-91704819D02*
X231172023Y-91752438D01*
X231172023Y-91752438D02*
X231219642Y-91800057D01*
X232172023Y-92704819D02*
X231600595Y-92704819D01*
X231886309Y-92704819D02*
X231886309Y-91704819D01*
X231886309Y-91704819D02*
X231791071Y-91847676D01*
X231791071Y-91847676D02*
X231695833Y-91942914D01*
X231695833Y-91942914D02*
X231600595Y-91990533D01*
X232552976Y-91800057D02*
X232600595Y-91752438D01*
X232600595Y-91752438D02*
X232695833Y-91704819D01*
X232695833Y-91704819D02*
X232933928Y-91704819D01*
X232933928Y-91704819D02*
X233029166Y-91752438D01*
X233029166Y-91752438D02*
X233076785Y-91800057D01*
X233076785Y-91800057D02*
X233124404Y-91895295D01*
X233124404Y-91895295D02*
X233124404Y-91990533D01*
X233124404Y-91990533D02*
X233076785Y-92133390D01*
X233076785Y-92133390D02*
X232505357Y-92704819D01*
X232505357Y-92704819D02*
X233124404Y-92704819D01*
X200656666Y-132929819D02*
X200656666Y-133644104D01*
X200656666Y-133644104D02*
X200609047Y-133786961D01*
X200609047Y-133786961D02*
X200513809Y-133882200D01*
X200513809Y-133882200D02*
X200370952Y-133929819D01*
X200370952Y-133929819D02*
X200275714Y-133929819D01*
X201085238Y-133025057D02*
X201132857Y-132977438D01*
X201132857Y-132977438D02*
X201228095Y-132929819D01*
X201228095Y-132929819D02*
X201466190Y-132929819D01*
X201466190Y-132929819D02*
X201561428Y-132977438D01*
X201561428Y-132977438D02*
X201609047Y-133025057D01*
X201609047Y-133025057D02*
X201656666Y-133120295D01*
X201656666Y-133120295D02*
X201656666Y-133215533D01*
X201656666Y-133215533D02*
X201609047Y-133358390D01*
X201609047Y-133358390D02*
X201037619Y-133929819D01*
X201037619Y-133929819D02*
X201656666Y-133929819D01*
X192024819Y-154863094D02*
X191024819Y-154863094D01*
X191024819Y-154863094D02*
X191024819Y-154624999D01*
X191024819Y-154624999D02*
X191072438Y-154482142D01*
X191072438Y-154482142D02*
X191167676Y-154386904D01*
X191167676Y-154386904D02*
X191262914Y-154339285D01*
X191262914Y-154339285D02*
X191453390Y-154291666D01*
X191453390Y-154291666D02*
X191596247Y-154291666D01*
X191596247Y-154291666D02*
X191786723Y-154339285D01*
X191786723Y-154339285D02*
X191881961Y-154386904D01*
X191881961Y-154386904D02*
X191977200Y-154482142D01*
X191977200Y-154482142D02*
X192024819Y-154624999D01*
X192024819Y-154624999D02*
X192024819Y-154863094D01*
X191358152Y-153434523D02*
X192024819Y-153434523D01*
X190977200Y-153672618D02*
X191691485Y-153910713D01*
X191691485Y-153910713D02*
X191691485Y-153291666D01*
X226920833Y-142884819D02*
X226587500Y-142408628D01*
X226349405Y-142884819D02*
X226349405Y-141884819D01*
X226349405Y-141884819D02*
X226730357Y-141884819D01*
X226730357Y-141884819D02*
X226825595Y-141932438D01*
X226825595Y-141932438D02*
X226873214Y-141980057D01*
X226873214Y-141980057D02*
X226920833Y-142075295D01*
X226920833Y-142075295D02*
X226920833Y-142218152D01*
X226920833Y-142218152D02*
X226873214Y-142313390D01*
X226873214Y-142313390D02*
X226825595Y-142361009D01*
X226825595Y-142361009D02*
X226730357Y-142408628D01*
X226730357Y-142408628D02*
X226349405Y-142408628D01*
X227777976Y-142218152D02*
X227777976Y-142884819D01*
X227539881Y-141837200D02*
X227301786Y-142551485D01*
X227301786Y-142551485D02*
X227920833Y-142551485D01*
X232359580Y-145166666D02*
X232407200Y-145214285D01*
X232407200Y-145214285D02*
X232454819Y-145357142D01*
X232454819Y-145357142D02*
X232454819Y-145452380D01*
X232454819Y-145452380D02*
X232407200Y-145595237D01*
X232407200Y-145595237D02*
X232311961Y-145690475D01*
X232311961Y-145690475D02*
X232216723Y-145738094D01*
X232216723Y-145738094D02*
X232026247Y-145785713D01*
X232026247Y-145785713D02*
X231883390Y-145785713D01*
X231883390Y-145785713D02*
X231692914Y-145738094D01*
X231692914Y-145738094D02*
X231597676Y-145690475D01*
X231597676Y-145690475D02*
X231502438Y-145595237D01*
X231502438Y-145595237D02*
X231454819Y-145452380D01*
X231454819Y-145452380D02*
X231454819Y-145357142D01*
X231454819Y-145357142D02*
X231502438Y-145214285D01*
X231502438Y-145214285D02*
X231550057Y-145166666D01*
X231454819Y-144309523D02*
X231454819Y-144499999D01*
X231454819Y-144499999D02*
X231502438Y-144595237D01*
X231502438Y-144595237D02*
X231550057Y-144642856D01*
X231550057Y-144642856D02*
X231692914Y-144738094D01*
X231692914Y-144738094D02*
X231883390Y-144785713D01*
X231883390Y-144785713D02*
X232264342Y-144785713D01*
X232264342Y-144785713D02*
X232359580Y-144738094D01*
X232359580Y-144738094D02*
X232407200Y-144690475D01*
X232407200Y-144690475D02*
X232454819Y-144595237D01*
X232454819Y-144595237D02*
X232454819Y-144404761D01*
X232454819Y-144404761D02*
X232407200Y-144309523D01*
X232407200Y-144309523D02*
X232359580Y-144261904D01*
X232359580Y-144261904D02*
X232264342Y-144214285D01*
X232264342Y-144214285D02*
X232026247Y-144214285D01*
X232026247Y-144214285D02*
X231931009Y-144261904D01*
X231931009Y-144261904D02*
X231883390Y-144309523D01*
X231883390Y-144309523D02*
X231835771Y-144404761D01*
X231835771Y-144404761D02*
X231835771Y-144595237D01*
X231835771Y-144595237D02*
X231883390Y-144690475D01*
X231883390Y-144690475D02*
X231931009Y-144738094D01*
X231931009Y-144738094D02*
X232026247Y-144785713D01*
X197333333Y-157359580D02*
X197285714Y-157407200D01*
X197285714Y-157407200D02*
X197142857Y-157454819D01*
X197142857Y-157454819D02*
X197047619Y-157454819D01*
X197047619Y-157454819D02*
X196904762Y-157407200D01*
X196904762Y-157407200D02*
X196809524Y-157311961D01*
X196809524Y-157311961D02*
X196761905Y-157216723D01*
X196761905Y-157216723D02*
X196714286Y-157026247D01*
X196714286Y-157026247D02*
X196714286Y-156883390D01*
X196714286Y-156883390D02*
X196761905Y-156692914D01*
X196761905Y-156692914D02*
X196809524Y-156597676D01*
X196809524Y-156597676D02*
X196904762Y-156502438D01*
X196904762Y-156502438D02*
X197047619Y-156454819D01*
X197047619Y-156454819D02*
X197142857Y-156454819D01*
X197142857Y-156454819D02*
X197285714Y-156502438D01*
X197285714Y-156502438D02*
X197333333Y-156550057D01*
X198333333Y-157454819D02*
X198000000Y-156978628D01*
X197761905Y-157454819D02*
X197761905Y-156454819D01*
X197761905Y-156454819D02*
X198142857Y-156454819D01*
X198142857Y-156454819D02*
X198238095Y-156502438D01*
X198238095Y-156502438D02*
X198285714Y-156550057D01*
X198285714Y-156550057D02*
X198333333Y-156645295D01*
X198333333Y-156645295D02*
X198333333Y-156788152D01*
X198333333Y-156788152D02*
X198285714Y-156883390D01*
X198285714Y-156883390D02*
X198238095Y-156931009D01*
X198238095Y-156931009D02*
X198142857Y-156978628D01*
X198142857Y-156978628D02*
X197761905Y-156978628D01*
X199285714Y-157454819D02*
X198714286Y-157454819D01*
X199000000Y-157454819D02*
X199000000Y-156454819D01*
X199000000Y-156454819D02*
X198904762Y-156597676D01*
X198904762Y-156597676D02*
X198809524Y-156692914D01*
X198809524Y-156692914D02*
X198714286Y-156740533D01*
X189165069Y-154733107D02*
X188688878Y-155066440D01*
X189165069Y-155304535D02*
X188165069Y-155304535D01*
X188165069Y-155304535D02*
X188165069Y-154923583D01*
X188165069Y-154923583D02*
X188212688Y-154828345D01*
X188212688Y-154828345D02*
X188260307Y-154780726D01*
X188260307Y-154780726D02*
X188355545Y-154733107D01*
X188355545Y-154733107D02*
X188498402Y-154733107D01*
X188498402Y-154733107D02*
X188593640Y-154780726D01*
X188593640Y-154780726D02*
X188641259Y-154828345D01*
X188641259Y-154828345D02*
X188688878Y-154923583D01*
X188688878Y-154923583D02*
X188688878Y-155304535D01*
X189165069Y-153780726D02*
X189165069Y-154352154D01*
X189165069Y-154066440D02*
X188165069Y-154066440D01*
X188165069Y-154066440D02*
X188307926Y-154161678D01*
X188307926Y-154161678D02*
X188403164Y-154256916D01*
X188403164Y-154256916D02*
X188450783Y-154352154D01*
X188165069Y-152923583D02*
X188165069Y-153114059D01*
X188165069Y-153114059D02*
X188212688Y-153209297D01*
X188212688Y-153209297D02*
X188260307Y-153256916D01*
X188260307Y-153256916D02*
X188403164Y-153352154D01*
X188403164Y-153352154D02*
X188593640Y-153399773D01*
X188593640Y-153399773D02*
X188974592Y-153399773D01*
X188974592Y-153399773D02*
X189069830Y-153352154D01*
X189069830Y-153352154D02*
X189117450Y-153304535D01*
X189117450Y-153304535D02*
X189165069Y-153209297D01*
X189165069Y-153209297D02*
X189165069Y-153018821D01*
X189165069Y-153018821D02*
X189117450Y-152923583D01*
X189117450Y-152923583D02*
X189069830Y-152875964D01*
X189069830Y-152875964D02*
X188974592Y-152828345D01*
X188974592Y-152828345D02*
X188736497Y-152828345D01*
X188736497Y-152828345D02*
X188641259Y-152875964D01*
X188641259Y-152875964D02*
X188593640Y-152923583D01*
X188593640Y-152923583D02*
X188546021Y-153018821D01*
X188546021Y-153018821D02*
X188546021Y-153209297D01*
X188546021Y-153209297D02*
X188593640Y-153304535D01*
X188593640Y-153304535D02*
X188641259Y-153352154D01*
X188641259Y-153352154D02*
X188736497Y-153399773D01*
X186857142Y-98929580D02*
X186809523Y-98977200D01*
X186809523Y-98977200D02*
X186666666Y-99024819D01*
X186666666Y-99024819D02*
X186571428Y-99024819D01*
X186571428Y-99024819D02*
X186428571Y-98977200D01*
X186428571Y-98977200D02*
X186333333Y-98881961D01*
X186333333Y-98881961D02*
X186285714Y-98786723D01*
X186285714Y-98786723D02*
X186238095Y-98596247D01*
X186238095Y-98596247D02*
X186238095Y-98453390D01*
X186238095Y-98453390D02*
X186285714Y-98262914D01*
X186285714Y-98262914D02*
X186333333Y-98167676D01*
X186333333Y-98167676D02*
X186428571Y-98072438D01*
X186428571Y-98072438D02*
X186571428Y-98024819D01*
X186571428Y-98024819D02*
X186666666Y-98024819D01*
X186666666Y-98024819D02*
X186809523Y-98072438D01*
X186809523Y-98072438D02*
X186857142Y-98120057D01*
X187809523Y-99024819D02*
X187238095Y-99024819D01*
X187523809Y-99024819D02*
X187523809Y-98024819D01*
X187523809Y-98024819D02*
X187428571Y-98167676D01*
X187428571Y-98167676D02*
X187333333Y-98262914D01*
X187333333Y-98262914D02*
X187238095Y-98310533D01*
X188714285Y-98024819D02*
X188238095Y-98024819D01*
X188238095Y-98024819D02*
X188190476Y-98501009D01*
X188190476Y-98501009D02*
X188238095Y-98453390D01*
X188238095Y-98453390D02*
X188333333Y-98405771D01*
X188333333Y-98405771D02*
X188571428Y-98405771D01*
X188571428Y-98405771D02*
X188666666Y-98453390D01*
X188666666Y-98453390D02*
X188714285Y-98501009D01*
X188714285Y-98501009D02*
X188761904Y-98596247D01*
X188761904Y-98596247D02*
X188761904Y-98834342D01*
X188761904Y-98834342D02*
X188714285Y-98929580D01*
X188714285Y-98929580D02*
X188666666Y-98977200D01*
X188666666Y-98977200D02*
X188571428Y-99024819D01*
X188571428Y-99024819D02*
X188333333Y-99024819D01*
X188333333Y-99024819D02*
X188238095Y-98977200D01*
X188238095Y-98977200D02*
X188190476Y-98929580D01*
X185970833Y-134789580D02*
X185923214Y-134837200D01*
X185923214Y-134837200D02*
X185780357Y-134884819D01*
X185780357Y-134884819D02*
X185685119Y-134884819D01*
X185685119Y-134884819D02*
X185542262Y-134837200D01*
X185542262Y-134837200D02*
X185447024Y-134741961D01*
X185447024Y-134741961D02*
X185399405Y-134646723D01*
X185399405Y-134646723D02*
X185351786Y-134456247D01*
X185351786Y-134456247D02*
X185351786Y-134313390D01*
X185351786Y-134313390D02*
X185399405Y-134122914D01*
X185399405Y-134122914D02*
X185447024Y-134027676D01*
X185447024Y-134027676D02*
X185542262Y-133932438D01*
X185542262Y-133932438D02*
X185685119Y-133884819D01*
X185685119Y-133884819D02*
X185780357Y-133884819D01*
X185780357Y-133884819D02*
X185923214Y-133932438D01*
X185923214Y-133932438D02*
X185970833Y-133980057D01*
X186447024Y-134884819D02*
X186637500Y-134884819D01*
X186637500Y-134884819D02*
X186732738Y-134837200D01*
X186732738Y-134837200D02*
X186780357Y-134789580D01*
X186780357Y-134789580D02*
X186875595Y-134646723D01*
X186875595Y-134646723D02*
X186923214Y-134456247D01*
X186923214Y-134456247D02*
X186923214Y-134075295D01*
X186923214Y-134075295D02*
X186875595Y-133980057D01*
X186875595Y-133980057D02*
X186827976Y-133932438D01*
X186827976Y-133932438D02*
X186732738Y-133884819D01*
X186732738Y-133884819D02*
X186542262Y-133884819D01*
X186542262Y-133884819D02*
X186447024Y-133932438D01*
X186447024Y-133932438D02*
X186399405Y-133980057D01*
X186399405Y-133980057D02*
X186351786Y-134075295D01*
X186351786Y-134075295D02*
X186351786Y-134313390D01*
X186351786Y-134313390D02*
X186399405Y-134408628D01*
X186399405Y-134408628D02*
X186447024Y-134456247D01*
X186447024Y-134456247D02*
X186542262Y-134503866D01*
X186542262Y-134503866D02*
X186732738Y-134503866D01*
X186732738Y-134503866D02*
X186827976Y-134456247D01*
X186827976Y-134456247D02*
X186875595Y-134408628D01*
X186875595Y-134408628D02*
X186923214Y-134313390D01*
X232357142Y-129959580D02*
X232309523Y-130007200D01*
X232309523Y-130007200D02*
X232166666Y-130054819D01*
X232166666Y-130054819D02*
X232071428Y-130054819D01*
X232071428Y-130054819D02*
X231928571Y-130007200D01*
X231928571Y-130007200D02*
X231833333Y-129911961D01*
X231833333Y-129911961D02*
X231785714Y-129816723D01*
X231785714Y-129816723D02*
X231738095Y-129626247D01*
X231738095Y-129626247D02*
X231738095Y-129483390D01*
X231738095Y-129483390D02*
X231785714Y-129292914D01*
X231785714Y-129292914D02*
X231833333Y-129197676D01*
X231833333Y-129197676D02*
X231928571Y-129102438D01*
X231928571Y-129102438D02*
X232071428Y-129054819D01*
X232071428Y-129054819D02*
X232166666Y-129054819D01*
X232166666Y-129054819D02*
X232309523Y-129102438D01*
X232309523Y-129102438D02*
X232357142Y-129150057D01*
X233309523Y-130054819D02*
X232738095Y-130054819D01*
X233023809Y-130054819D02*
X233023809Y-129054819D01*
X233023809Y-129054819D02*
X232928571Y-129197676D01*
X232928571Y-129197676D02*
X232833333Y-129292914D01*
X232833333Y-129292914D02*
X232738095Y-129340533D01*
X233880952Y-129483390D02*
X233785714Y-129435771D01*
X233785714Y-129435771D02*
X233738095Y-129388152D01*
X233738095Y-129388152D02*
X233690476Y-129292914D01*
X233690476Y-129292914D02*
X233690476Y-129245295D01*
X233690476Y-129245295D02*
X233738095Y-129150057D01*
X233738095Y-129150057D02*
X233785714Y-129102438D01*
X233785714Y-129102438D02*
X233880952Y-129054819D01*
X233880952Y-129054819D02*
X234071428Y-129054819D01*
X234071428Y-129054819D02*
X234166666Y-129102438D01*
X234166666Y-129102438D02*
X234214285Y-129150057D01*
X234214285Y-129150057D02*
X234261904Y-129245295D01*
X234261904Y-129245295D02*
X234261904Y-129292914D01*
X234261904Y-129292914D02*
X234214285Y-129388152D01*
X234214285Y-129388152D02*
X234166666Y-129435771D01*
X234166666Y-129435771D02*
X234071428Y-129483390D01*
X234071428Y-129483390D02*
X233880952Y-129483390D01*
X233880952Y-129483390D02*
X233785714Y-129531009D01*
X233785714Y-129531009D02*
X233738095Y-129578628D01*
X233738095Y-129578628D02*
X233690476Y-129673866D01*
X233690476Y-129673866D02*
X233690476Y-129864342D01*
X233690476Y-129864342D02*
X233738095Y-129959580D01*
X233738095Y-129959580D02*
X233785714Y-130007200D01*
X233785714Y-130007200D02*
X233880952Y-130054819D01*
X233880952Y-130054819D02*
X234071428Y-130054819D01*
X234071428Y-130054819D02*
X234166666Y-130007200D01*
X234166666Y-130007200D02*
X234214285Y-129959580D01*
X234214285Y-129959580D02*
X234261904Y-129864342D01*
X234261904Y-129864342D02*
X234261904Y-129673866D01*
X234261904Y-129673866D02*
X234214285Y-129578628D01*
X234214285Y-129578628D02*
X234166666Y-129531009D01*
X234166666Y-129531009D02*
X234071428Y-129483390D01*
X186959042Y-123329581D02*
X186911423Y-123377201D01*
X186911423Y-123377201D02*
X186768566Y-123424820D01*
X186768566Y-123424820D02*
X186673328Y-123424820D01*
X186673328Y-123424820D02*
X186530471Y-123377201D01*
X186530471Y-123377201D02*
X186435233Y-123281962D01*
X186435233Y-123281962D02*
X186387614Y-123186724D01*
X186387614Y-123186724D02*
X186339995Y-122996248D01*
X186339995Y-122996248D02*
X186339995Y-122853391D01*
X186339995Y-122853391D02*
X186387614Y-122662915D01*
X186387614Y-122662915D02*
X186435233Y-122567677D01*
X186435233Y-122567677D02*
X186530471Y-122472439D01*
X186530471Y-122472439D02*
X186673328Y-122424820D01*
X186673328Y-122424820D02*
X186768566Y-122424820D01*
X186768566Y-122424820D02*
X186911423Y-122472439D01*
X186911423Y-122472439D02*
X186959042Y-122520058D01*
X187911423Y-123424820D02*
X187339995Y-123424820D01*
X187625709Y-123424820D02*
X187625709Y-122424820D01*
X187625709Y-122424820D02*
X187530471Y-122567677D01*
X187530471Y-122567677D02*
X187435233Y-122662915D01*
X187435233Y-122662915D02*
X187339995Y-122710534D01*
X188244757Y-122424820D02*
X188863804Y-122424820D01*
X188863804Y-122424820D02*
X188530471Y-122805772D01*
X188530471Y-122805772D02*
X188673328Y-122805772D01*
X188673328Y-122805772D02*
X188768566Y-122853391D01*
X188768566Y-122853391D02*
X188816185Y-122901010D01*
X188816185Y-122901010D02*
X188863804Y-122996248D01*
X188863804Y-122996248D02*
X188863804Y-123234343D01*
X188863804Y-123234343D02*
X188816185Y-123329581D01*
X188816185Y-123329581D02*
X188768566Y-123377201D01*
X188768566Y-123377201D02*
X188673328Y-123424820D01*
X188673328Y-123424820D02*
X188387614Y-123424820D01*
X188387614Y-123424820D02*
X188292376Y-123377201D01*
X188292376Y-123377201D02*
X188244757Y-123329581D01*
X203026666Y-158454819D02*
X203026666Y-159169104D01*
X203026666Y-159169104D02*
X202979047Y-159311961D01*
X202979047Y-159311961D02*
X202883809Y-159407200D01*
X202883809Y-159407200D02*
X202740952Y-159454819D01*
X202740952Y-159454819D02*
X202645714Y-159454819D01*
X204026666Y-159454819D02*
X203455238Y-159454819D01*
X203740952Y-159454819D02*
X203740952Y-158454819D01*
X203740952Y-158454819D02*
X203645714Y-158597676D01*
X203645714Y-158597676D02*
X203550476Y-158692914D01*
X203550476Y-158692914D02*
X203455238Y-158740533D01*
X226954819Y-120166666D02*
X226478628Y-120499999D01*
X226954819Y-120738094D02*
X225954819Y-120738094D01*
X225954819Y-120738094D02*
X225954819Y-120357142D01*
X225954819Y-120357142D02*
X226002438Y-120261904D01*
X226002438Y-120261904D02*
X226050057Y-120214285D01*
X226050057Y-120214285D02*
X226145295Y-120166666D01*
X226145295Y-120166666D02*
X226288152Y-120166666D01*
X226288152Y-120166666D02*
X226383390Y-120214285D01*
X226383390Y-120214285D02*
X226431009Y-120261904D01*
X226431009Y-120261904D02*
X226478628Y-120357142D01*
X226478628Y-120357142D02*
X226478628Y-120738094D01*
X226383390Y-119595237D02*
X226335771Y-119690475D01*
X226335771Y-119690475D02*
X226288152Y-119738094D01*
X226288152Y-119738094D02*
X226192914Y-119785713D01*
X226192914Y-119785713D02*
X226145295Y-119785713D01*
X226145295Y-119785713D02*
X226050057Y-119738094D01*
X226050057Y-119738094D02*
X226002438Y-119690475D01*
X226002438Y-119690475D02*
X225954819Y-119595237D01*
X225954819Y-119595237D02*
X225954819Y-119404761D01*
X225954819Y-119404761D02*
X226002438Y-119309523D01*
X226002438Y-119309523D02*
X226050057Y-119261904D01*
X226050057Y-119261904D02*
X226145295Y-119214285D01*
X226145295Y-119214285D02*
X226192914Y-119214285D01*
X226192914Y-119214285D02*
X226288152Y-119261904D01*
X226288152Y-119261904D02*
X226335771Y-119309523D01*
X226335771Y-119309523D02*
X226383390Y-119404761D01*
X226383390Y-119404761D02*
X226383390Y-119595237D01*
X226383390Y-119595237D02*
X226431009Y-119690475D01*
X226431009Y-119690475D02*
X226478628Y-119738094D01*
X226478628Y-119738094D02*
X226573866Y-119785713D01*
X226573866Y-119785713D02*
X226764342Y-119785713D01*
X226764342Y-119785713D02*
X226859580Y-119738094D01*
X226859580Y-119738094D02*
X226907200Y-119690475D01*
X226907200Y-119690475D02*
X226954819Y-119595237D01*
X226954819Y-119595237D02*
X226954819Y-119404761D01*
X226954819Y-119404761D02*
X226907200Y-119309523D01*
X226907200Y-119309523D02*
X226859580Y-119261904D01*
X226859580Y-119261904D02*
X226764342Y-119214285D01*
X226764342Y-119214285D02*
X226573866Y-119214285D01*
X226573866Y-119214285D02*
X226478628Y-119261904D01*
X226478628Y-119261904D02*
X226431009Y-119309523D01*
X226431009Y-119309523D02*
X226383390Y-119404761D01*
X207333333Y-148359580D02*
X207285714Y-148407200D01*
X207285714Y-148407200D02*
X207142857Y-148454819D01*
X207142857Y-148454819D02*
X207047619Y-148454819D01*
X207047619Y-148454819D02*
X206904762Y-148407200D01*
X206904762Y-148407200D02*
X206809524Y-148311961D01*
X206809524Y-148311961D02*
X206761905Y-148216723D01*
X206761905Y-148216723D02*
X206714286Y-148026247D01*
X206714286Y-148026247D02*
X206714286Y-147883390D01*
X206714286Y-147883390D02*
X206761905Y-147692914D01*
X206761905Y-147692914D02*
X206809524Y-147597676D01*
X206809524Y-147597676D02*
X206904762Y-147502438D01*
X206904762Y-147502438D02*
X207047619Y-147454819D01*
X207047619Y-147454819D02*
X207142857Y-147454819D01*
X207142857Y-147454819D02*
X207285714Y-147502438D01*
X207285714Y-147502438D02*
X207333333Y-147550057D01*
X208333333Y-148454819D02*
X208000000Y-147978628D01*
X207761905Y-148454819D02*
X207761905Y-147454819D01*
X207761905Y-147454819D02*
X208142857Y-147454819D01*
X208142857Y-147454819D02*
X208238095Y-147502438D01*
X208238095Y-147502438D02*
X208285714Y-147550057D01*
X208285714Y-147550057D02*
X208333333Y-147645295D01*
X208333333Y-147645295D02*
X208333333Y-147788152D01*
X208333333Y-147788152D02*
X208285714Y-147883390D01*
X208285714Y-147883390D02*
X208238095Y-147931009D01*
X208238095Y-147931009D02*
X208142857Y-147978628D01*
X208142857Y-147978628D02*
X207761905Y-147978628D01*
X208714286Y-147550057D02*
X208761905Y-147502438D01*
X208761905Y-147502438D02*
X208857143Y-147454819D01*
X208857143Y-147454819D02*
X209095238Y-147454819D01*
X209095238Y-147454819D02*
X209190476Y-147502438D01*
X209190476Y-147502438D02*
X209238095Y-147550057D01*
X209238095Y-147550057D02*
X209285714Y-147645295D01*
X209285714Y-147645295D02*
X209285714Y-147740533D01*
X209285714Y-147740533D02*
X209238095Y-147883390D01*
X209238095Y-147883390D02*
X208666667Y-148454819D01*
X208666667Y-148454819D02*
X209285714Y-148454819D01*
X203920833Y-147884819D02*
X203587500Y-147408628D01*
X203349405Y-147884819D02*
X203349405Y-146884819D01*
X203349405Y-146884819D02*
X203730357Y-146884819D01*
X203730357Y-146884819D02*
X203825595Y-146932438D01*
X203825595Y-146932438D02*
X203873214Y-146980057D01*
X203873214Y-146980057D02*
X203920833Y-147075295D01*
X203920833Y-147075295D02*
X203920833Y-147218152D01*
X203920833Y-147218152D02*
X203873214Y-147313390D01*
X203873214Y-147313390D02*
X203825595Y-147361009D01*
X203825595Y-147361009D02*
X203730357Y-147408628D01*
X203730357Y-147408628D02*
X203349405Y-147408628D01*
X204301786Y-146980057D02*
X204349405Y-146932438D01*
X204349405Y-146932438D02*
X204444643Y-146884819D01*
X204444643Y-146884819D02*
X204682738Y-146884819D01*
X204682738Y-146884819D02*
X204777976Y-146932438D01*
X204777976Y-146932438D02*
X204825595Y-146980057D01*
X204825595Y-146980057D02*
X204873214Y-147075295D01*
X204873214Y-147075295D02*
X204873214Y-147170533D01*
X204873214Y-147170533D02*
X204825595Y-147313390D01*
X204825595Y-147313390D02*
X204254167Y-147884819D01*
X204254167Y-147884819D02*
X204873214Y-147884819D01*
X197954819Y-114861904D02*
X198764342Y-114861904D01*
X198764342Y-114861904D02*
X198859580Y-114814285D01*
X198859580Y-114814285D02*
X198907200Y-114766666D01*
X198907200Y-114766666D02*
X198954819Y-114671428D01*
X198954819Y-114671428D02*
X198954819Y-114480952D01*
X198954819Y-114480952D02*
X198907200Y-114385714D01*
X198907200Y-114385714D02*
X198859580Y-114338095D01*
X198859580Y-114338095D02*
X198764342Y-114290476D01*
X198764342Y-114290476D02*
X197954819Y-114290476D01*
X198954819Y-113290476D02*
X198954819Y-113861904D01*
X198954819Y-113576190D02*
X197954819Y-113576190D01*
X197954819Y-113576190D02*
X198097676Y-113671428D01*
X198097676Y-113671428D02*
X198192914Y-113766666D01*
X198192914Y-113766666D02*
X198240533Y-113861904D01*
X204454819Y-143642857D02*
X203978628Y-143976190D01*
X204454819Y-144214285D02*
X203454819Y-144214285D01*
X203454819Y-144214285D02*
X203454819Y-143833333D01*
X203454819Y-143833333D02*
X203502438Y-143738095D01*
X203502438Y-143738095D02*
X203550057Y-143690476D01*
X203550057Y-143690476D02*
X203645295Y-143642857D01*
X203645295Y-143642857D02*
X203788152Y-143642857D01*
X203788152Y-143642857D02*
X203883390Y-143690476D01*
X203883390Y-143690476D02*
X203931009Y-143738095D01*
X203931009Y-143738095D02*
X203978628Y-143833333D01*
X203978628Y-143833333D02*
X203978628Y-144214285D01*
X204454819Y-142690476D02*
X204454819Y-143261904D01*
X204454819Y-142976190D02*
X203454819Y-142976190D01*
X203454819Y-142976190D02*
X203597676Y-143071428D01*
X203597676Y-143071428D02*
X203692914Y-143166666D01*
X203692914Y-143166666D02*
X203740533Y-143261904D01*
X203550057Y-142309523D02*
X203502438Y-142261904D01*
X203502438Y-142261904D02*
X203454819Y-142166666D01*
X203454819Y-142166666D02*
X203454819Y-141928571D01*
X203454819Y-141928571D02*
X203502438Y-141833333D01*
X203502438Y-141833333D02*
X203550057Y-141785714D01*
X203550057Y-141785714D02*
X203645295Y-141738095D01*
X203645295Y-141738095D02*
X203740533Y-141738095D01*
X203740533Y-141738095D02*
X203883390Y-141785714D01*
X203883390Y-141785714D02*
X204454819Y-142357142D01*
X204454819Y-142357142D02*
X204454819Y-141738095D01*
X182454819Y-143863094D02*
X181454819Y-143863094D01*
X181454819Y-143863094D02*
X181454819Y-143624999D01*
X181454819Y-143624999D02*
X181502438Y-143482142D01*
X181502438Y-143482142D02*
X181597676Y-143386904D01*
X181597676Y-143386904D02*
X181692914Y-143339285D01*
X181692914Y-143339285D02*
X181883390Y-143291666D01*
X181883390Y-143291666D02*
X182026247Y-143291666D01*
X182026247Y-143291666D02*
X182216723Y-143339285D01*
X182216723Y-143339285D02*
X182311961Y-143386904D01*
X182311961Y-143386904D02*
X182407200Y-143482142D01*
X182407200Y-143482142D02*
X182454819Y-143624999D01*
X182454819Y-143624999D02*
X182454819Y-143863094D01*
X181454819Y-142386904D02*
X181454819Y-142863094D01*
X181454819Y-142863094D02*
X181931009Y-142910713D01*
X181931009Y-142910713D02*
X181883390Y-142863094D01*
X181883390Y-142863094D02*
X181835771Y-142767856D01*
X181835771Y-142767856D02*
X181835771Y-142529761D01*
X181835771Y-142529761D02*
X181883390Y-142434523D01*
X181883390Y-142434523D02*
X181931009Y-142386904D01*
X181931009Y-142386904D02*
X182026247Y-142339285D01*
X182026247Y-142339285D02*
X182264342Y-142339285D01*
X182264342Y-142339285D02*
X182359580Y-142386904D01*
X182359580Y-142386904D02*
X182407200Y-142434523D01*
X182407200Y-142434523D02*
X182454819Y-142529761D01*
X182454819Y-142529761D02*
X182454819Y-142767856D01*
X182454819Y-142767856D02*
X182407200Y-142863094D01*
X182407200Y-142863094D02*
X182359580Y-142910713D01*
X226954819Y-115738094D02*
X225954819Y-115738094D01*
X225954819Y-115738094D02*
X225954819Y-115499999D01*
X225954819Y-115499999D02*
X226002438Y-115357142D01*
X226002438Y-115357142D02*
X226097676Y-115261904D01*
X226097676Y-115261904D02*
X226192914Y-115214285D01*
X226192914Y-115214285D02*
X226383390Y-115166666D01*
X226383390Y-115166666D02*
X226526247Y-115166666D01*
X226526247Y-115166666D02*
X226716723Y-115214285D01*
X226716723Y-115214285D02*
X226811961Y-115261904D01*
X226811961Y-115261904D02*
X226907200Y-115357142D01*
X226907200Y-115357142D02*
X226954819Y-115499999D01*
X226954819Y-115499999D02*
X226954819Y-115738094D01*
X226954819Y-114214285D02*
X226954819Y-114785713D01*
X226954819Y-114499999D02*
X225954819Y-114499999D01*
X225954819Y-114499999D02*
X226097676Y-114595237D01*
X226097676Y-114595237D02*
X226192914Y-114690475D01*
X226192914Y-114690475D02*
X226240533Y-114785713D01*
X188494642Y-138789580D02*
X188447023Y-138837200D01*
X188447023Y-138837200D02*
X188304166Y-138884819D01*
X188304166Y-138884819D02*
X188208928Y-138884819D01*
X188208928Y-138884819D02*
X188066071Y-138837200D01*
X188066071Y-138837200D02*
X187970833Y-138741961D01*
X187970833Y-138741961D02*
X187923214Y-138646723D01*
X187923214Y-138646723D02*
X187875595Y-138456247D01*
X187875595Y-138456247D02*
X187875595Y-138313390D01*
X187875595Y-138313390D02*
X187923214Y-138122914D01*
X187923214Y-138122914D02*
X187970833Y-138027676D01*
X187970833Y-138027676D02*
X188066071Y-137932438D01*
X188066071Y-137932438D02*
X188208928Y-137884819D01*
X188208928Y-137884819D02*
X188304166Y-137884819D01*
X188304166Y-137884819D02*
X188447023Y-137932438D01*
X188447023Y-137932438D02*
X188494642Y-137980057D01*
X189447023Y-138884819D02*
X188875595Y-138884819D01*
X189161309Y-138884819D02*
X189161309Y-137884819D01*
X189161309Y-137884819D02*
X189066071Y-138027676D01*
X189066071Y-138027676D02*
X188970833Y-138122914D01*
X188970833Y-138122914D02*
X188875595Y-138170533D01*
X190399404Y-138884819D02*
X189827976Y-138884819D01*
X190113690Y-138884819D02*
X190113690Y-137884819D01*
X190113690Y-137884819D02*
X190018452Y-138027676D01*
X190018452Y-138027676D02*
X189923214Y-138122914D01*
X189923214Y-138122914D02*
X189827976Y-138170533D01*
X224954819Y-124863094D02*
X223954819Y-124863094D01*
X223954819Y-124863094D02*
X223954819Y-124624999D01*
X223954819Y-124624999D02*
X224002438Y-124482142D01*
X224002438Y-124482142D02*
X224097676Y-124386904D01*
X224097676Y-124386904D02*
X224192914Y-124339285D01*
X224192914Y-124339285D02*
X224383390Y-124291666D01*
X224383390Y-124291666D02*
X224526247Y-124291666D01*
X224526247Y-124291666D02*
X224716723Y-124339285D01*
X224716723Y-124339285D02*
X224811961Y-124386904D01*
X224811961Y-124386904D02*
X224907200Y-124482142D01*
X224907200Y-124482142D02*
X224954819Y-124624999D01*
X224954819Y-124624999D02*
X224954819Y-124863094D01*
X224050057Y-123910713D02*
X224002438Y-123863094D01*
X224002438Y-123863094D02*
X223954819Y-123767856D01*
X223954819Y-123767856D02*
X223954819Y-123529761D01*
X223954819Y-123529761D02*
X224002438Y-123434523D01*
X224002438Y-123434523D02*
X224050057Y-123386904D01*
X224050057Y-123386904D02*
X224145295Y-123339285D01*
X224145295Y-123339285D02*
X224240533Y-123339285D01*
X224240533Y-123339285D02*
X224383390Y-123386904D01*
X224383390Y-123386904D02*
X224954819Y-123958332D01*
X224954819Y-123958332D02*
X224954819Y-123339285D01*
D12*
%TO.C,J3*%
X231670000Y-115650000D02*
X231670000Y-123330000D01*
X231670000Y-115650000D02*
X234330000Y-115650000D01*
X231670000Y-123330000D02*
X234330000Y-123330000D01*
X233000000Y-113050000D02*
X234330000Y-113050000D01*
X234330000Y-113050000D02*
X234330000Y-114380000D01*
X234330000Y-115650000D02*
X234330000Y-123330000D01*
%TO.C,C5*%
X192490000Y-107991233D02*
X192490000Y-108283767D01*
X193510000Y-107991233D02*
X193510000Y-108283767D01*
%TO.C,Q2*%
X212200000Y-140850000D02*
X215800000Y-140850000D01*
X212161522Y-140838478D02*
G75*
G02*
X214000000Y-136399999I1838478J1838478D01*
G01*
X214000000Y-136400000D02*
G75*
G02*
X215838478Y-140838478I0J-2600000D01*
G01*
%TO.C,R6*%
X216342224Y-145477500D02*
X215832776Y-145477500D01*
X216342224Y-146522500D02*
X215832776Y-146522500D01*
%TO.C,C4*%
X195490000Y-103853733D02*
X195490000Y-104146267D01*
X196510000Y-103853733D02*
X196510000Y-104146267D01*
%TO.C,R9*%
X225477500Y-128870276D02*
X225477500Y-129379724D01*
X226522500Y-128870276D02*
X226522500Y-129379724D01*
%TO.C,C14*%
X228490000Y-137783767D02*
X228490000Y-137491233D01*
X229510000Y-137783767D02*
X229510000Y-137491233D01*
D13*
%TO.C,U3*%
X196688100Y-119507000D02*
X196688100Y-126873000D01*
X196688100Y-126873000D02*
X196960630Y-126873000D01*
X196960630Y-119507000D02*
X196688100Y-119507000D01*
X198879370Y-126873000D02*
X199500630Y-126873000D01*
X199500630Y-119507000D02*
X198879370Y-119507000D01*
X201419370Y-126873000D02*
X202040630Y-126873000D01*
X202040630Y-119507000D02*
X201419370Y-119507000D01*
X203959370Y-126873000D02*
X204580630Y-126873000D01*
X204580630Y-119507000D02*
X203959370Y-119507000D01*
X206499370Y-126873000D02*
X207120630Y-126873000D01*
X207120630Y-119507000D02*
X206499370Y-119507000D01*
X209039370Y-126873000D02*
X209660630Y-126873000D01*
X209660630Y-119507000D02*
X209039370Y-119507000D01*
X211579370Y-126873000D02*
X212200630Y-126873000D01*
X212200630Y-119507000D02*
X211579370Y-119507000D01*
X214119370Y-126873000D02*
X214740630Y-126873000D01*
X214732260Y-119507000D02*
X214119370Y-119507000D01*
X216659370Y-126873000D02*
X216931900Y-126873000D01*
X216931900Y-119507000D02*
X216667740Y-119507000D01*
X216931900Y-126873000D02*
X216931900Y-119507000D01*
%TO.C,SW4*%
X184625799Y-103637640D02*
X184625799Y-108442292D01*
X186582039Y-109374200D02*
X188925298Y-109374200D01*
X188925298Y-103125800D02*
X186574701Y-103125800D01*
X190874199Y-108862360D02*
X190874199Y-103637640D01*
D12*
%TO.C,R15*%
X183477500Y-148254724D02*
X183477500Y-147745276D01*
X184522500Y-148254724D02*
X184522500Y-147745276D01*
%TO.C,C8*%
X197283767Y-129490000D02*
X196991233Y-129490000D01*
X197283767Y-130510000D02*
X196991233Y-130510000D01*
%TO.C,C10*%
X187008767Y-128490000D02*
X186716233Y-128490000D01*
X187008767Y-129510000D02*
X186716233Y-129510000D01*
%TO.C,R3*%
X195477500Y-107832776D02*
X195477500Y-108342224D01*
X196522500Y-107832776D02*
X196522500Y-108342224D01*
%TO.C,C3*%
X192490000Y-103853733D02*
X192490000Y-104146267D01*
X193510000Y-103853733D02*
X193510000Y-104146267D01*
%TO.C,R13*%
X191477500Y-128254724D02*
X191477500Y-127745276D01*
X192522500Y-128254724D02*
X192522500Y-127745276D01*
%TO.C,C7*%
X198146267Y-134490000D02*
X197853733Y-134490000D01*
X198146267Y-135510000D02*
X197853733Y-135510000D01*
D13*
%TO.C,CR3*%
X209790200Y-146000000D02*
G75*
G02*
X209637800Y-146000000I-76200J0D01*
G01*
X209637800Y-146000000D02*
G75*
G02*
X209790200Y-146000000I76200J0D01*
G01*
D12*
%TO.C,C16*%
X195649750Y-153991233D02*
X195649750Y-154283767D01*
X196669750Y-153991233D02*
X196669750Y-154283767D01*
%TO.C,Q1*%
X206660000Y-140850000D02*
X210260000Y-140850000D01*
X206621522Y-140838478D02*
G75*
G02*
X208460000Y-136399999I1838478J1838478D01*
G01*
X208460000Y-136400000D02*
G75*
G02*
X210298478Y-140838478I0J-2600000D01*
G01*
%TO.C,U5*%
X189590000Y-143937250D02*
X190850000Y-143937250D01*
X189590000Y-147697250D02*
X189590000Y-143937250D01*
X196410000Y-143937250D02*
X195150000Y-143937250D01*
X196410000Y-147697250D02*
X196410000Y-143937250D01*
X189690000Y-148977250D02*
X189360000Y-149217250D01*
X189360000Y-148737250D01*
X189690000Y-148977250D01*
G36*
X189690000Y-148977250D02*
G01*
X189360000Y-149217250D01*
X189360000Y-148737250D01*
X189690000Y-148977250D01*
G37*
%TO.C,D3*%
X223240000Y-114200000D02*
X223240000Y-116660000D01*
X223240000Y-116660000D02*
X224710000Y-116660000D01*
X224710000Y-116660000D02*
X224710000Y-114200000D01*
%TO.C,R11*%
X201477500Y-138832776D02*
X201477500Y-139342224D01*
X202522500Y-138832776D02*
X202522500Y-139342224D01*
%TO.C,R14*%
X193477500Y-132657776D02*
X193477500Y-133167224D01*
X194522500Y-132657776D02*
X194522500Y-133167224D01*
D13*
%TO.C,SW1*%
X229125801Y-98387640D02*
X229125801Y-103612360D01*
X231074702Y-104124200D02*
X233425299Y-104124200D01*
X233417961Y-97875800D02*
X231074702Y-97875800D01*
X235374201Y-103612360D02*
X235374201Y-98807708D01*
D12*
%TO.C,R7*%
X228477500Y-133657776D02*
X228477500Y-134167224D01*
X229522500Y-133657776D02*
X229522500Y-134167224D01*
%TO.C,C1*%
X232490000Y-136008767D02*
X232490000Y-135716233D01*
X233510000Y-136008767D02*
X233510000Y-135716233D01*
%TO.C,C17*%
X186490000Y-142991233D02*
X186490000Y-143283767D01*
X187510000Y-142991233D02*
X187510000Y-143283767D01*
%TO.C,C2*%
X199490000Y-153991233D02*
X199490000Y-154283767D01*
X200510000Y-153991233D02*
X200510000Y-154283767D01*
%TO.C,R10*%
X223477500Y-119745276D02*
X223477500Y-120254724D01*
X224522500Y-119745276D02*
X224522500Y-120254724D01*
%TO.C,R5*%
X229477500Y-142167224D02*
X229477500Y-141657776D01*
X230522500Y-142167224D02*
X230522500Y-141657776D01*
D13*
%TO.C,SW2*%
X184625799Y-114637640D02*
X184625799Y-119442292D01*
X186582039Y-120374200D02*
X188925298Y-120374200D01*
X188925298Y-114125800D02*
X186574701Y-114125800D01*
X190874199Y-119862360D02*
X190874199Y-114637640D01*
D12*
%TO.C,C12*%
X232008767Y-93740000D02*
X231716233Y-93740000D01*
X232008767Y-94760000D02*
X231716233Y-94760000D01*
%TO.C,J2*%
X200620000Y-129645000D02*
X201950000Y-129645000D01*
X200620000Y-130975000D02*
X200620000Y-129645000D01*
X203220000Y-129645000D02*
X213440000Y-129645000D01*
X203220000Y-132305000D02*
X203220000Y-129645000D01*
X203220000Y-132305000D02*
X213440000Y-132305000D01*
X213440000Y-132305000D02*
X213440000Y-129645000D01*
%TO.C,D4*%
X192265000Y-153325000D02*
X192265000Y-155785000D01*
X192265000Y-155785000D02*
X193735000Y-155785000D01*
X193735000Y-155785000D02*
X193735000Y-153325000D01*
%TO.C,R4*%
X227342224Y-140477500D02*
X226832776Y-140477500D01*
X227342224Y-141522500D02*
X226832776Y-141522500D01*
%TO.C,C6*%
X231490000Y-141716233D02*
X231490000Y-142008767D01*
X232510000Y-141716233D02*
X232510000Y-142008767D01*
D13*
%TO.C,CR1*%
X198076200Y-152714000D02*
G75*
G02*
X197923800Y-152714000I-76200J0D01*
G01*
X197923800Y-152714000D02*
G75*
G02*
X198076200Y-152714000I76200J0D01*
G01*
D12*
%TO.C,R16*%
X189617750Y-154344974D02*
X189617750Y-153835526D01*
X190662750Y-154344974D02*
X190662750Y-153835526D01*
%TO.C,C15*%
X187353733Y-99490000D02*
X187646267Y-99490000D01*
X187353733Y-100510000D02*
X187646267Y-100510000D01*
%TO.C,C9*%
X186283767Y-132490000D02*
X185991233Y-132490000D01*
X186283767Y-133510000D02*
X185991233Y-133510000D01*
%TO.C,C18*%
X233146267Y-126627500D02*
X232853733Y-126627500D01*
X233146267Y-127647500D02*
X232853733Y-127647500D01*
%TO.C,U4*%
X188490000Y-131452500D02*
X188490000Y-134312500D01*
X191910000Y-131452500D02*
X191910000Y-134312500D01*
X188600000Y-131212500D02*
X188320000Y-131212500D01*
X188600000Y-130932500D01*
X188600000Y-131212500D01*
G36*
X188600000Y-131212500D02*
G01*
X188320000Y-131212500D01*
X188600000Y-130932500D01*
X188600000Y-131212500D01*
G37*
%TO.C,C13*%
X187455633Y-123890001D02*
X187748167Y-123890001D01*
X187455633Y-124910001D02*
X187748167Y-124910001D01*
D14*
%TO.C,J1*%
X205530000Y-154215000D02*
X205530000Y-155755000D01*
X205530000Y-159600000D02*
X205530000Y-158245000D01*
X214470000Y-154215000D02*
X214470000Y-155755000D01*
X214470000Y-159600000D02*
X205530000Y-159600000D01*
X214470000Y-159600000D02*
X214470000Y-158245000D01*
%TO.C,U2*%
X221500000Y-134500000D02*
X222045000Y-134500000D01*
X221500000Y-135045000D02*
X221500000Y-134500000D01*
X221500000Y-139500000D02*
X221500000Y-138955000D01*
X222045000Y-139500000D02*
X221500000Y-139500000D01*
X226500000Y-134500000D02*
X225955000Y-134500000D01*
X226500000Y-134500000D02*
X226500000Y-135045000D01*
X226500000Y-138955000D02*
X226500000Y-139500000D01*
X226500000Y-139500000D02*
X225955000Y-139500000D01*
D15*
X222600000Y-140455000D02*
G75*
G02*
X222400000Y-140455000I-100000J0D01*
G01*
X222400000Y-140455000D02*
G75*
G02*
X222600000Y-140455000I100000J0D01*
G01*
D12*
%TO.C,R8*%
X227477500Y-119745276D02*
X227477500Y-120254724D01*
X228522500Y-119745276D02*
X228522500Y-120254724D01*
D13*
%TO.C,CR2*%
X210219200Y-146000000D02*
G75*
G02*
X210066800Y-146000000I-76200J0D01*
G01*
X210066800Y-146000000D02*
G75*
G02*
X210219200Y-146000000I76200J0D01*
G01*
D12*
%TO.C,R2*%
X204342224Y-145477500D02*
X203832776Y-145477500D01*
X204342224Y-146522500D02*
X203832776Y-146522500D01*
%TO.C,U1*%
X200890000Y-94790000D02*
X200890000Y-100600000D01*
X200890000Y-94790000D02*
X219110000Y-94790000D01*
X200890000Y-114710000D02*
X200890000Y-115010000D01*
X200890000Y-115010000D02*
X219110000Y-115010000D01*
X219110000Y-94790000D02*
X219110000Y-101290000D01*
X219110000Y-114710000D02*
X219110000Y-115010000D01*
X200900000Y-101300000D02*
X200400000Y-101300000D01*
X200900000Y-100800000D01*
X200900000Y-101300000D01*
G36*
X200900000Y-101300000D02*
G01*
X200400000Y-101300000D01*
X200900000Y-100800000D01*
X200900000Y-101300000D01*
G37*
%TO.C,R12*%
X203477500Y-138832776D02*
X203477500Y-139342224D01*
X204522500Y-138832776D02*
X204522500Y-139342224D01*
%TO.C,D5*%
X183265000Y-142325000D02*
X183265000Y-144785000D01*
X183265000Y-144785000D02*
X184735000Y-144785000D01*
X184735000Y-144785000D02*
X184735000Y-142325000D01*
%TO.C,D1*%
X227265000Y-114200000D02*
X227265000Y-116660000D01*
X227265000Y-116660000D02*
X228735000Y-116660000D01*
X228735000Y-116660000D02*
X228735000Y-114200000D01*
%TO.C,C11*%
X189283767Y-136490000D02*
X188991233Y-136490000D01*
X189283767Y-137510000D02*
X188991233Y-137510000D01*
%TO.C,D2*%
X225265000Y-123325000D02*
X225265000Y-125785000D01*
X225265000Y-125785000D02*
X226735000Y-125785000D01*
X226735000Y-125785000D02*
X226735000Y-123325000D01*
%TD*%
M02*
